<?xml version="1.0" standalone="no"?>
<!DOCTYPE svg PUBLIC "-//W3C//DTD SVG 20010904//EN"
 "http://www.w3.org/TR/2001/REC-SVG-20010904/DTD/svg10.dtd">
<svg version="1.0" xmlns="http://www.w3.org/2000/svg"
 width="626.000000pt" height="626.000000pt" viewBox="0 0 626.000000 626.000000"
 preserveAspectRatio="xMidYMid meet">

<g transform="translate(0.000000,626.000000) scale(0.100000,-0.100000)"
fill="#000000" stroke="none">
<path d="M0 3130 l0 -3130 3130 0 3130 0 0 3130 0 3130 -3130 0 -3130 0 0
-3130z m3174 1991 c3 -5 -8 -15 -25 -24 -19 -9 -27 -17 -20 -21 8 -5 6 -13 -6
-24 -16 -16 -15 -17 18 -22 l34 -5 -30 -12 c-16 -7 -69 -14 -116 -15 -64 -2
-85 -6 -82 -15 8 -21 -27 -27 -45 -9 -16 15 -15 17 5 22 13 4 21 10 18 13 -2
4 1 8 8 9 7 0 26 5 42 10 24 8 26 10 8 11 -12 1 -25 6 -28 11 -5 8 -11 7 -21
-1 -10 -8 -18 -8 -27 0 -9 6 -24 8 -43 3 -16 -5 -40 -6 -54 -2 -24 6 -24 7 9
13 18 4 38 4 45 0 7 -4 7 -1 -1 9 -17 20 -7 28 34 28 22 0 33 -5 33 -15 0 -20
27 -8 33 16 3 10 12 19 21 19 21 0 20 -16 -1 -29 -14 -8 -10 -10 20 -9 20 1
37 6 37 11 0 5 15 7 35 4 25 -4 41 -1 57 13 26 22 34 24 42 11z m90 -22 c10
-9 7 -10 -64 -27 -25 -6 -47 -8 -50 -6 -6 7 31 28 50 29 8 0 14 6 12 13 -3 14
34 8 52 -9z m171 10 c4 -6 5 -12 2 -15 -7 -7 -37 7 -37 17 0 13 27 11 35 -2z
m-605 -9 c-20 -13 -43 -13 -35 0 3 6 16 10 28 10 18 0 19 -2 7 -10z m-183 -31
c-7 -27 8 -24 39 9 17 18 28 23 31 15 3 -7 20 -13 39 -13 28 0 34 -4 32 -17
-2 -12 5 -19 20 -21 13 -2 22 -9 19 -15 -3 -8 9 -11 41 -8 74 6 40 -17 -38
-25 l-69 -6 35 -24 c19 -13 41 -24 49 -24 25 0 17 -19 -10 -26 -14 -3 -25 -12
-25 -19 0 -8 -5 -17 -12 -21 -7 -5 -9 -2 -5 9 3 9 0 18 -9 21 -9 3 -12 10 -9
16 3 5 0 10 -9 10 -8 0 -23 3 -33 6 -12 4 -9 -3 11 -21 16 -15 23 -26 15 -25
-25 4 -40 0 -35 -8 6 -10 -100 1 -110 11 -4 4 0 7 10 7 13 0 16 5 11 21 -5 16
-4 19 6 14 9 -6 11 -3 6 8 -3 10 -2 17 3 17 6 0 9 6 8 13 -2 7 11 13 36 15 45
4 75 27 57 45 -8 8 -11 8 -11 -1 0 -13 -77 -39 -86 -29 -4 4 -1 13 5 21 10 12
9 13 -9 9 -23 -6 -38 -23 -20 -23 6 0 9 -4 6 -9 -11 -18 -41 -4 -40 18 0 11
-3 21 -7 21 -17 0 -61 -21 -56 -26 3 -3 15 -1 26 6 22 11 30 -3 9 -16 -8 -5
-6 -10 8 -14 16 -6 14 -8 -13 -14 -18 -4 -33 -12 -33 -17 0 -5 -7 -9 -15 -9
-9 0 -15 9 -15 25 0 19 -5 25 -16 23 -10 -2 -19 3 -22 11 -3 10 3 12 27 6 22
-5 31 -3 29 5 -2 7 6 17 17 23 11 7 24 18 28 25 7 11 13 10 28 -4 15 -14 19
-14 19 -3 0 19 21 40 32 32 6 -3 8 -14 5 -24z m703 22 c0 -5 8 -12 18 -15 14
-4 14 -5 -3 -4 -44 1 -54 -2 -49 -16 3 -8 16 -17 29 -20 49 -12 76 -26 70 -36
-4 -7 -13 -7 -26 0 -10 6 -19 7 -19 2 0 -5 -11 -9 -25 -9 -14 0 -25 4 -25 9 0
6 -7 7 -16 4 -13 -5 -15 -2 -11 14 3 13 0 20 -8 20 -23 0 -28 20 -9 41 17 19
74 27 74 10z m111 -18 c32 -6 33 -7 9 -13 -29 -7 -60 -2 -60 11 0 11 7 11 51
2z m97 -19 c0 -23 -22 -44 -34 -32 -6 7 17 58 26 58 4 0 8 -12 8 -26z m-323
-35 c-4 -13 2 -19 25 -24 35 -8 35 -26 -1 -37 -22 -7 -22 -7 4 -4 17 2 26 -1
24 -8 -2 -6 -17 -10 -33 -9 -16 1 -58 3 -94 3 -48 1 -71 6 -87 19 -13 11 -23
21 -23 24 0 2 30 7 68 11 62 6 67 8 68 31 1 16 -2 23 -10 19 -6 -3 -2 2 8 10
18 14 21 14 38 -1 10 -9 16 -24 13 -34z m462 34 c3 -9 -8 -10 -35 -4 -2 1 0 6
3 12 8 12 27 7 32 -8z m-278 -2 c19 -12 -4 -24 -30 -16 -17 6 -19 9 -8 16 17
11 21 11 38 0z m221 -11 c12 -8 9 -10 -12 -10 -15 0 -30 5 -33 10 -8 13 25 13
45 0z m170 0 c0 -11 -42 -30 -63 -30 -17 1 32 40 49 40 8 0 14 -5 14 -10z
m-90 -10 c0 -5 -10 -10 -22 -9 -22 0 -22 1 -3 9 11 5 21 9 23 9 1 1 2 -3 2 -9z
m-1290 -20 c0 -6 15 -17 33 -25 17 -8 26 -14 20 -15 -7 0 -13 -7 -13 -17 0 -9
-3 -14 -6 -10 -3 3 -19 1 -35 -5 -24 -8 -29 -16 -29 -42 0 -18 -6 -38 -12 -45
-11 -11 -10 -13 5 -7 13 4 17 2 14 -6 -2 -7 -12 -12 -22 -10 -9 2 -25 -4 -35
-13 -10 -9 -23 -14 -28 -11 -11 6 -23 -25 -25 -67 -2 -28 -1 -27 35 15 21 24
36 48 33 55 -2 7 4 10 15 8 20 -4 70 39 70 61 0 8 6 14 13 14 9 0 8 3 -2 9
-11 7 -10 11 5 19 35 18 95 24 110 11 13 -11 14 -9 9 14 -5 20 -3 28 10 33 22
9 39 -9 31 -33 -7 -22 -45 -43 -76 -43 -26 0 -26 -16 0 -23 20 -5 28 -27 10
-27 -5 0 -10 4 -10 9 0 24 -63 16 -66 -9 -1 -5 -2 -14 -3 -18 0 -5 -11 -14
-23 -20 -22 -11 -21 -11 5 -6 17 4 27 2 27 -5 0 -12 -7 -15 -54 -26 -34 -7
-24 -24 17 -27 18 -2 26 -7 22 -16 -2 -7 -1 -10 4 -7 6 3 14 -3 20 -12 8 -14
10 -10 11 25 0 29 4 42 14 42 7 0 21 11 30 25 9 14 23 25 32 25 12 0 14 -10
10 -52 -3 -41 0 -58 17 -84 23 -35 50 -54 40 -28 -3 7 -9 14 -14 14 -4 0 -6 7
-3 15 4 8 1 15 -5 15 -7 0 -10 13 -7 35 3 19 0 37 -5 40 -5 4 -9 13 -9 22 0
13 3 13 15 3 8 -7 12 -17 8 -23 -4 -6 0 -8 11 -4 10 4 19 1 22 -8 4 -8 14 -15
24 -15 17 0 17 -2 3 -31 -11 -23 -12 -34 -4 -42 8 -8 11 -4 11 16 0 33 13 35
29 5 8 -17 10 -18 6 -4 -6 19 -5 19 14 2 11 -10 25 -15 30 -11 6 3 11 1 11 -5
0 -26 18 3 29 46 9 34 16 44 27 40 9 -3 12 -2 9 5 -8 11 21 59 35 59 15 0 12
-57 -5 -73 -8 -8 -11 -17 -8 -21 4 -3 -4 -20 -17 -38 l-23 -31 24 7 c38 12 52
12 55 1 5 -14 -71 -49 -91 -41 -13 5 -15 2 -10 -15 5 -15 4 -19 -5 -14 -9 6
-9 3 -1 -13 14 -26 14 -79 1 -87 -5 -3 -10 -1 -10 6 0 7 -3 10 -6 7 -3 -4 0
-17 7 -29 l12 -23 23 27 23 27 7 -23 c11 -32 12 -57 2 -63 -4 -3 -8 0 -8 5 0
20 -20 11 -30 -13 -20 -52 -38 -30 -54 64 -2 14 -3 -5 -3 -42 1 -37 -2 -70 -6
-74 -4 -4 -7 1 -7 12 -1 18 -1 18 -11 1 -6 -11 -8 -33 -5 -50 4 -23 3 -28 -4
-17 -8 12 -10 12 -10 1 0 -10 -3 -11 -14 -2 -11 9 -15 6 -19 -16 -3 -14 0 -34
6 -43 6 -10 7 -26 2 -36 -11 -27 -13 -54 -4 -54 4 0 3 -15 -4 -32 l-11 -33 -6
30 c-3 17 -11 29 -18 28 -16 -4 -16 49 0 65 22 22 1 12 -25 -12 -14 -13 -23
-27 -20 -30 3 -3 0 -12 -6 -20 -7 -8 -10 -20 -6 -26 3 -5 3 -15 -1 -21 -4 -8
-9 -7 -15 2 -6 9 -9 1 -10 -26 -1 -39 -2 -39 -9 -10 -5 20 -8 24 -9 10 -1 -16
-3 -17 -10 -6 -5 8 -7 20 -4 27 2 6 0 15 -6 18 -6 4 -13 -18 -18 -56 -4 -36
-9 -52 -11 -38 -2 14 -11 33 -20 43 -15 17 -16 16 -31 -15 -13 -30 -15 -31
-18 -10 -4 21 -23 32 -23 12 0 -21 -18 -9 -34 23 l-17 32 7 -39 c5 -28 4 -37
-5 -32 -6 4 -11 15 -11 24 0 29 -19 -2 -22 -36 -3 -45 -14 -40 -22 10 l-7 41
-20 -41 c-12 -23 -24 -41 -27 -41 -25 4 -32 -5 -32 -36 0 -19 -4 -35 -10 -35
-5 0 -10 17 -10 38 0 30 -4 38 -18 38 -10 0 -19 -5 -20 -11 -1 -5 -5 -26 -10
-45 -9 -32 -10 -32 -11 -8 -1 15 -5 29 -10 32 -15 9 -20 -32 -6 -51 7 -9 11
-23 8 -29 -2 -7 5 -15 16 -19 26 -8 28 -25 4 -26 -17 -1 -17 -2 0 -6 17 -4 25
-33 8 -33 -13 0 -26 20 -47 72 -10 27 -23 48 -27 48 -5 0 -5 5 -2 10 3 6 1 10
-5 10 -7 0 -9 -7 -6 -15 15 -37 18 -50 8 -37 -5 8 -13 13 -18 12 -4 -1 -11 7
-15 17 -7 17 -8 17 -9 -2 -1 -11 -8 0 -15 25 -7 25 -13 37 -14 27 -1 -14 -6
-17 -22 -12 -20 7 -21 5 -15 -31 6 -38 6 -38 -8 -14 -14 23 -15 23 -16 5 -1
-16 -4 -14 -16 10 l-15 30 4 -27 c5 -32 -9 -38 -18 -8 -8 25 -25 26 -26 3 0
-10 -6 -3 -13 15 -6 18 -15 30 -19 26 -4 -4 -3 -12 2 -18 5 -6 14 -28 21 -49
15 -46 64 -132 57 -99 -6 26 0 28 24 6 16 -15 17 -14 12 8 l-6 23 23 -25 c14
-16 24 -21 27 -13 2 7 11 9 19 6 8 -3 14 -1 14 4 0 15 33 12 52 -4 9 -8 22
-12 27 -8 6 3 11 1 11 -5 0 -6 -12 -11 -27 -9 -16 1 -35 -1 -43 -4 -8 -4 -69
-13 -135 -22 -134 -18 -291 -50 -341 -71 -18 -8 -44 -14 -58 -14 -28 0 -73 48
-82 88 -3 15 -13 44 -22 65 -13 31 -13 40 -3 47 8 4 11 12 7 18 -3 6 -2 43 4
83 8 53 7 74 -1 79 -6 4 -9 16 -7 26 2 11 7 17 12 14 9 -6 37 70 30 82 -9 14
7 48 22 48 8 0 14 7 14 15 0 8 6 29 14 47 8 18 19 46 26 62 8 21 14 26 19 18
6 -10 11 -9 21 3 11 13 10 15 -4 9 -24 -9 -20 9 9 36 19 18 22 27 14 42 -12
22 -6 34 11 23 6 -4 9 -13 6 -21 -6 -16 -4 -17 18 -8 12 5 14 10 6 19 -16 19
-1 47 21 40 13 -5 17 -2 14 7 -3 8 3 23 15 33 11 10 20 26 20 35 0 10 7 21 16
24 12 4 15 2 10 -9 -3 -8 -3 -15 -1 -15 10 0 86 43 91 52 11 18 -6 21 -24 5
-10 -10 -25 -17 -33 -17 -8 1 -3 10 15 26 26 23 27 26 12 43 -12 13 -13 20 -4
29 16 16 52 -4 44 -25 -6 -14 -4 -14 10 -2 9 7 33 21 53 30 27 13 31 18 15 18
-11 1 -26 -5 -33 -11 -10 -11 -12 -9 -9 7 2 13 12 21 28 22 14 0 28 2 33 3 13
4 27 7 36 9 6 0 9 13 8 29 -1 18 3 27 13 27 9 0 14 -7 12 -17 -2 -10 2 -18 9
-18 6 0 9 -8 6 -20 -4 -17 -3 -18 16 -8 12 6 34 20 50 30 23 17 27 17 27 4 0
-9 -4 -16 -9 -16 -5 0 -7 -10 -4 -21 5 -16 -4 -30 -33 -55 -21 -18 -33 -33
-26 -34 16 0 15 -19 -2 -51 -12 -24 -12 -26 4 -22 11 3 17 15 17 34 0 35 30
69 61 72 12 1 22 4 22 8 0 4 9 11 21 14 16 5 20 13 16 31 -2 13 0 24 5 24 5 0
6 5 3 10 -4 6 1 24 9 42 19 38 19 39 4 33 -7 -3 -20 -1 -28 4 -12 8 -12 13 4
30 13 14 29 19 57 18 21 -1 39 -5 39 -10 0 -5 7 -6 16 -3 8 3 12 2 9 -4 -3 -6
-1 -10 6 -10 7 0 9 -3 6 -7 -4 -3 -18 0 -32 7 -22 12 -28 12 -42 -3 -16 -16
-16 -17 5 -17 12 0 22 -5 22 -11 0 -8 4 -8 15 1 18 15 40 3 26 -14 -6 -7 -8
-16 -5 -19 4 -3 -10 -16 -30 -28 -33 -19 -52 -38 -23 -24 6 4 2 -2 -11 -12
-21 -17 -22 -21 -8 -32 14 -12 18 -9 31 23 19 45 62 76 77 55 8 -11 9 -10 4 4
-3 9 -2 17 3 17 17 0 -2 68 -23 82 -6 4 -5 12 3 22 12 14 10 16 -8 16 -11 0
-21 5 -21 11 0 8 12 10 34 6 25 -4 36 -1 40 9 6 16 56 19 56 4z m1415 0 c4 -6
-5 -10 -20 -10 -15 0 -24 4 -20 10 3 6 12 10 20 10 8 0 17 -4 20 -10z m-186
-9 c12 -8 9 -11 -11 -16 -30 -8 -68 1 -68 16 0 12 60 12 79 0z m-259 -48 c0
-25 0 -26 -20 -8 -15 14 -17 21 -9 31 16 19 29 8 29 -23z m60 19 c0 -17 -33
-45 -42 -36 -3 2 -3 16 0 29 5 29 42 36 42 7z m97 2 c9 -25 -13 -40 -26 -16
-10 19 -6 32 11 32 5 0 11 -7 15 -16z m223 6 c12 -8 10 -10 -10 -10 -14 0 -32
5 -40 10 -12 8 -10 10 10 10 14 0 32 -5 40 -10z m125 0 c4 -6 -5 -10 -19 -10
-14 0 -26 5 -26 10 0 6 9 10 19 10 11 0 23 -4 26 -10z m-40 -20 c13 0 27 -4
30 -10 8 -13 -6 -13 -39 0 -14 5 -26 15 -25 22 0 10 2 10 6 1 2 -7 15 -13 28
-13z m-965 0 c0 -12 -8 -12 -35 0 -18 8 -17 9 8 9 15 1 27 -3 27 -9z m835 0
c3 -5 -2 -10 -12 -10 -10 0 -35 -3 -55 -6 -24 -4 -38 -3 -38 4 0 20 94 30 105
12z m212 -6 c-3 -3 -12 -4 -19 -1 -8 3 -5 6 6 6 11 1 17 -2 13 -5z m-900 -16
c-3 -10 16 -13 76 -13 59 0 82 -4 85 -14 3 -9 6 -10 12 -2 3 7 14 9 24 5 13
-5 16 -16 14 -42 -3 -37 -28 -59 -28 -25 0 11 -12 30 -26 42 l-26 23 6 -29 c7
-32 -7 -63 -19 -43 -4 7 -3 15 4 19 7 5 6 14 -5 29 -15 22 -51 32 -38 10 5 -7
3 -8 -6 -3 -7 4 -16 2 -22 -6 -7 -12 -11 -11 -20 2 -10 14 -14 12 -29 -18 -16
-31 -16 -37 -4 -50 17 -17 19 -56 5 -84 -17 -31 -27 -22 -29 24 -1 23 -2 57
-3 75 -1 22 -6 32 -17 32 -10 0 -12 3 -5 8 14 9 25 40 16 45 -4 2 -1 2 6 1 7
-2 15 3 18 11 4 8 8 15 11 15 3 0 3 -6 0 -12z m996 0 c3 -9 -9 -14 -39 -16
-24 -1 -44 2 -44 7 0 8 15 13 66 20 7 0 14 -5 17 -11z m-192 -13 c1 -17 -18
-17 -25 0 -4 11 -1 15 10 13 8 -2 15 -7 15 -13z m-503 -3 c12 -8 7 -42 -7 -42
-4 0 -15 6 -26 13 -30 23 0 49 33 29z m400 -42 c12 0 24 -29 17 -40 -6 -9 -95
46 -95 59 0 4 6 13 13 20 10 10 16 7 34 -13 12 -15 26 -26 31 -26z m-191 24
c8 -21 -13 -42 -28 -27 -13 13 -5 43 11 43 6 0 13 -7 17 -16z m-1417 -9 c0 -8
6 -15 13 -15 7 -1 4 -6 -6 -15 -11 -7 -25 -11 -33 -8 -8 3 -14 1 -14 -5 0 -5
-8 -12 -17 -16 -10 -3 -25 -9 -33 -13 -8 -3 6 15 30 40 48 49 60 56 60 32z
m733 9 c3 -4 -5 -21 -18 -39 -14 -17 -25 -37 -25 -43 0 -7 -4 -12 -10 -12 -5
0 -10 15 -10 34 0 25 7 39 22 50 25 18 32 19 41 10z m1087 -15 c11 -6 8 -8
-11 -9 -15 0 -33 7 -40 16 -12 15 -11 16 11 9 14 -4 32 -11 40 -16z m193 14
c9 -9 -12 -33 -29 -33 -17 0 -18 27 -1 33 18 8 23 8 30 0z m-2090 -45 c-10 -3
-21 -7 -25 -7 -12 -1 -9 24 4 37 10 10 15 9 26 -5 11 -15 10 -19 -5 -25z m528
10 c-11 -10 -13 -10 -7 0 4 6 2 12 -4 12 -6 0 -8 5 -4 11 4 8 9 8 17 0 8 -8 7
-14 -2 -23z m699 6 c0 -22 -16 -17 -17 6 -1 11 2 18 8 15 5 -4 9 -13 9 -21z
m140 -6 c0 -13 -4 -29 -9 -36 -12 -20 -32 9 -24 36 7 29 33 29 33 0z m665 12
c-3 -5 -10 -10 -16 -10 -5 0 -9 5 -9 10 0 6 7 10 16 10 8 0 12 -4 9 -10z
m-1307 -17 c6 -10 6 -29 1 -47 -10 -33 -11 -71 -2 -48 2 6 9 12 14 12 15 0 10
-23 -11 -50 -19 -23 -21 -24 -34 -8 -7 10 -16 14 -21 10 -4 -4 -4 4 0 17 5 16
4 21 -4 17 -17 -11 -13 2 8 23 12 12 17 27 14 40 -11 42 16 68 35 34z m-98
-15 c0 -13 -5 -30 -10 -38 -9 -13 -12 -13 -24 2 -7 10 -16 15 -19 11 -4 -3 -7
-1 -7 5 0 7 5 12 10 12 6 0 10 7 10 15 0 8 9 15 20 15 14 0 20 -7 20 -22z
m447 0 c-3 -8 -6 -5 -6 6 -1 11 2 17 5 13 3 -3 4 -12 1 -19z m83 8 c0 -8 -4
-17 -9 -21 -6 -3 -9 4 -8 15 1 23 17 28 17 6z m-1042 -33 c-10 -39 -34 -73
-50 -73 -15 0 3 83 21 97 31 24 40 16 29 -24z m1364 20 c9 1 16 -2 15 -8 -2
-10 -71 -17 -96 -9 -10 3 -11 7 -2 18 9 11 19 12 39 6 15 -5 35 -8 44 -7z m95
2 c-4 -8 -2 -17 3 -20 6 -4 10 -1 10 6 0 10 3 10 12 1 19 -19 -6 -40 -27 -22
-17 14 -20 50 -4 50 6 0 9 -7 6 -15z m450 9 c-3 -3 -12 -4 -19 -1 -8 3 -5 6 6
6 11 1 17 -2 13 -5z m120 -14 c-1 -15 -6 -18 -27 -13 -54 13 -65 23 -20 18 32
-4 39 -2 25 4 -19 9 -19 10 2 10 16 1 21 -4 20 -19z m-1673 4 c22 -8 20 -21
-5 -35 -28 -14 -48 3 -29 26 14 17 13 17 34 9z m1366 -51 c0 -32 -14 -29 -38
9 -15 24 -18 35 -9 40 17 10 47 -21 47 -49z m-913 31 c4 -11 -75 -79 -82 -72
-2 2 2 16 10 30 7 15 10 29 7 31 -4 2 -2 2 5 1 6 -2 17 4 24 12 13 16 31 14
36 -2z m337 -1 c13 -46 17 -93 8 -93 -5 0 -13 8 -16 17 -5 13 -9 14 -19 4 -7
-7 -12 -17 -12 -24 0 -18 -48 -38 -60 -26 -7 7 -4 15 9 24 10 8 15 18 12 23
-3 5 5 7 18 5 24 -5 36 15 36 65 0 26 16 30 24 5z m60 -14 c-3 -5 0 -8 7 -7
18 4 23 -30 7 -49 -11 -14 -13 -13 -19 8 -11 38 -10 71 1 64 6 -4 8 -11 4 -16z
m644 1 c29 -18 43 -40 24 -40 -12 0 -78 59 -67 60 6 0 25 -9 43 -20z m122 -1
c12 -7 10 -8 -7 -9 -28 0 -53 10 -53 22 0 9 33 3 60 -13z m-970 1 c0 -5 -2
-10 -4 -10 -3 0 -8 5 -11 10 -3 6 -1 10 4 10 6 0 11 -4 11 -10z m658 -15 c-2
-5 -11 -10 -20 -10 -19 -2 -23 7 -11 19 10 10 35 3 31 -9z m442 0 c14 -16 10
-18 -14 -9 -9 3 -16 10 -16 15 0 14 16 11 30 -6z m-678 -22 c19 -17 24 -43 9
-43 -18 0 -54 37 -47 48 10 16 16 15 38 -5z m602 9 c2 -4 -4 -9 -15 -9 -10 -1
-19 2 -19 8 0 11 27 12 34 1z m-79 -12 c3 -5 2 -10 -4 -10 -5 0 -13 5 -16 10
-3 6 -2 10 4 10 5 0 13 -4 16 -10z m205 -22 c0 -5 -11 -8 -25 -8 -29 0 -32 8
-8 26 17 12 32 3 33 -18z m-1160 -51 c0 -15 -3 -16 -22 -6 -19 9 -17 5 8 -22
31 -34 38 -73 8 -48 -8 6 -11 16 -7 22 3 5 1 7 -5 3 -6 -3 -14 -2 -17 4 -12
19 -13 84 -2 105 10 19 11 18 23 -10 7 -16 13 -38 14 -48z m306 50 c2 -7 -4
-30 -14 -51 l-19 -38 -1 33 c-2 42 6 69 19 69 5 0 12 -6 15 -13z m264 -2 c0
-8 4 -15 9 -15 5 0 12 -7 15 -16 5 -14 4 -15 -8 -5 -8 7 -19 10 -25 7 -5 -3
-12 1 -15 10 -10 25 -7 34 9 34 8 0 15 -7 15 -15z m-720 -37 c28 -3 43 -48 16
-48 -48 0 -94 44 -82 77 6 13 9 13 24 -5 10 -11 29 -22 42 -24z m855 32 c3 -5
-1 -10 -10 -10 -9 0 -13 5 -10 10 3 6 8 10 10 10 2 0 7 -4 10 -10z m-356 -40
c-8 -6 -8 -9 0 -14 6 -4 9 -12 5 -17 -10 -17 -24 2 -24 33 0 26 2 29 15 18 12
-10 13 -15 4 -20z m371 -2 c0 -6 -6 -5 -15 2 -8 7 -15 14 -15 16 0 2 7 1 15
-2 8 -4 15 -11 15 -16z m228 -14 c4 -28 3 -28 -16 -10 -12 10 -18 24 -15 32 9
23 28 10 31 -22z m316 15 c-31 -12 -40 -9 -20 6 10 8 24 11 29 8 6 -4 2 -10
-9 -14z m-1099 -78 c-3 -18 -9 -30 -12 -27 -9 9 -14 78 -7 95 10 27 26 -29 19
-68z m-97 57 c15 -15 16 -64 2 -73 -10 -6 -14 7 -11 33 1 6 -3 12 -9 12 -5 0
-10 9 -10 20 0 23 10 26 28 8z m949 -10 c-3 -8 -6 -5 -6 6 -1 11 2 17 5 13 3
-3 4 -12 1 -19z m-809 0 c7 -7 12 -21 12 -32 0 -18 -1 -19 -20 -1 -20 18 -27
45 -12 45 4 0 13 -5 20 -12z m1172 -68 c0 -5 -9 -6 -19 -3 -12 3 -17 11 -14
19 4 11 9 12 19 3 8 -6 14 -15 14 -19z m-1606 -2 c10 -39 7 -80 -6 -76 -14 5
-31 65 -24 84 8 21 23 17 30 -8z m132 8 c8 -22 -14 -56 -37 -56 -19 0 -20 -4
-14 -37 5 -28 4 -35 -5 -27 -14 14 -23 77 -10 69 6 -4 10 5 10 19 0 14 5 26
10 26 6 0 10 -5 10 -12 0 -9 3 -9 12 0 10 10 10 15 -2 22 -13 8 -12 10 3 10
10 0 20 -6 23 -14z m1414 -6 c0 -5 -2 -10 -4 -10 -3 0 -8 5 -11 10 -3 6 -1 10
4 10 6 0 11 -4 11 -10z m-1221 -42 c0 -27 -2 -29 -8 -13 -5 11 -6 26 -4 33 8
21 13 13 12 -20z m1321 -29 c0 -10 -4 -19 -10 -19 -5 0 -10 12 -10 26 0 14 4
23 10 19 6 -3 10 -15 10 -26z m-390 -9 c0 -11 -4 -20 -10 -20 -5 0 -10 9 -10
20 0 11 5 20 10 20 6 0 10 -9 10 -20z m420 -10 c0 -5 -2 -10 -4 -10 -3 0 -8 5
-11 10 -3 6 -1 10 4 10 6 0 11 -4 11 -10z m-1660 -41 c0 -6 -4 -7 -10 -4 -5 3
-10 11 -10 16 0 6 5 7 10 4 6 -3 10 -11 10 -16z m720 -55 c0 -13 -5 -24 -10
-24 -13 0 -30 43 -30 73 l1 22 19 -24 c11 -13 20 -34 20 -47z m984 49 c4 -9 2
-21 -4 -27 -7 -7 -10 -7 -10 1 0 6 -3 18 -6 27 -3 9 -2 16 4 16 5 0 13 -8 16
-17z m-1677 -15 c-3 -8 -6 -5 -6 6 -1 11 2 17 5 13 3 -3 4 -12 1 -19z m374
-21 c-1 -12 -15 -9 -19 4 -3 6 1 10 8 8 6 -3 11 -8 11 -12z m489 -6 c0 -12
-39 -25 -48 -16 -7 7 17 25 36 25 6 0 12 -4 12 -9z m-850 -11 c0 -5 -5 -10
-11 -10 -5 0 -7 5 -4 10 3 6 8 10 11 10 2 0 4 -4 4 -10z m1713 -72 c-2 -4 2
-5 9 -3 20 8 46 -53 41 -92 -5 -33 40 -143 55 -133 4 3 9 -6 10 -19 3 -16 0
-21 -9 -16 -9 6 -10 1 -5 -21 26 -110 26 -127 -4 -226 -12 -40 -36 -54 -27
-15 3 12 2 31 -3 42 -7 19 -9 18 -19 -7 -6 -16 -12 -28 -13 -28 -2 0 -1 28 0
62 4 71 -3 70 -33 -4 -12 -31 -27 -52 -38 -54 -13 -2 -16 3 -12 19 32 157 32
186 0 92 -14 -38 -25 -72 -26 -75 -4 -14 -17 61 -18 99 -1 44 -15 48 -23 6 -3
-14 -8 -5 -18 28 -8 26 -18 47 -22 47 -4 0 -8 8 -9 18 0 11 -5 7 -14 -13 l-14
-30 -1 30 c0 23 -3 27 -10 15 -8 -13 -11 -11 -16 8 -4 12 -13 22 -20 22 -8 0
-14 10 -14 23 0 34 11 67 21 62 4 -3 17 3 29 15 11 11 25 19 32 18 6 -2 14 8
18 22 6 23 8 22 20 -17 7 -24 19 -43 27 -43 15 0 17 22 3 36 -6 6 -6 15 0 24
8 12 10 10 10 -8 0 -13 4 -20 10 -17 6 3 10 1 10 -4 0 -6 5 -11 10 -11 6 0 10
10 10 23 0 13 3 17 8 11 4 -6 15 -9 24 -5 16 6 16 9 2 41 -9 19 -22 47 -31 63
-8 15 -10 27 -5 27 5 0 15 11 22 25 l14 26 11 -28 c7 -15 10 -31 8 -35z
m-1786 30 c-3 -8 -6 -5 -6 6 -1 11 2 17 5 13 3 -3 4 -12 1 -19z m19 -43 c-14
-53 -31 -75 -21 -25 7 33 22 70 29 70 2 0 -2 -20 -8 -45z m-122 -29 l5 -38
-23 21 c-20 19 -22 26 -12 46 14 30 24 21 30 -29z m1793 32 c-3 -8 -6 -5 -6 6
-1 11 2 17 5 13 3 -3 4 -12 1 -19z m-1843 -39 c37 -29 35 -53 -4 -45 -22 4
-30 2 -30 -9 0 -9 6 -12 15 -9 8 4 15 2 15 -4 0 -6 -6 -13 -12 -15 -8 -3 -6
-6 5 -6 15 -1 15 -4 5 -21 -17 -27 -27 -13 -32 46 -3 27 -5 54 -6 59 -7 31 8
32 44 4z m1593 -1 c-3 -8 -6 -5 -6 6 -1 11 2 17 5 13 3 -3 4 -12 1 -19z m253
-23 c0 -5 -5 -3 -10 5 -5 8 -10 20 -10 25 0 6 5 3 10 -5 5 -8 10 -19 10 -25z
m-213 -7 c-3 -8 -6 -5 -6 6 -1 11 2 17 5 13 3 -3 4 -12 1 -19z m250 -10 c-3
-7 -5 -2 -5 12 0 14 2 19 5 13 2 -7 2 -19 0 -25z m-195 -10 c-9 -9 -12 -7 -12
12 0 19 3 21 12 12 9 -9 9 -15 0 -24z m338 -67 c-1 -10 -6 -7 -15 9 -19 33
-18 50 0 26 8 -11 15 -27 15 -35z m-1895 19 c3 -5 1 -10 -4 -10 -6 0 -11 5
-11 10 0 6 2 10 4 10 3 0 8 -4 11 -10z m-438 -162 c-3 -8 -6 -5 -6 6 -1 11 2
17 5 13 3 -3 4 -12 1 -19z m-100 -20 c-3 -8 -6 -5 -6 6 -1 11 2 17 5 13 3 -3
4 -12 1 -19z m463 -28 c0 -5 -4 -10 -10 -10 -5 0 -10 5 -10 10 0 6 5 10 10 10
6 0 10 -4 10 -10z m-143 -91 c0 -22 -3 -39 -8 -39 -14 0 -28 43 -19 60 4 8 5
21 2 29 -4 12 -2 12 9 1 8 -7 15 -30 16 -51z m-123 -4 c18 -19 10 -45 -14 -45
-12 0 -17 7 -15 23 5 44 6 45 29 22z m-250 -11 c3 -8 2 -12 -4 -9 -6 3 -10 10
-10 16 0 14 7 11 14 -7z m186 -17 c0 -13 -6 -24 -13 -24 -9 0 -12 9 -9 24 2
13 8 23 13 23 5 0 9 -10 9 -23z m270 16 c0 -5 -5 -15 -10 -23 -8 -12 -10 -11
-10 8 0 12 5 22 10 22 6 0 10 -3 10 -7z m334 -8 c-4 -8 -8 -15 -10 -15 -2 0
-4 7 -4 15 0 8 4 15 10 15 5 0 7 -7 4 -15z m-855 -22 c1 20 2 20 35 7 42 -15
30 -30 -24 -30 -48 0 -50 1 -38 20 12 18 13 19 20 2 6 -16 7 -16 7 1z m206 -3
c4 -6 -6 -10 -22 -9 -25 0 -26 1 -8 9 11 5 21 9 22 9 1 1 5 -3 8 -9z m1375
-97 c0 -30 3 -35 20 -30 36 9 21 -4 -33 -28 -51 -24 -187 -58 -196 -49 -2 2
10 7 28 10 29 6 32 10 28 33 -10 57 4 74 73 92 36 9 68 14 73 12 4 -2 7 -20 7
-40z m540 -12 c0 -46 -12 -68 -27 -49 -23 29 -33 59 -27 82 5 22 8 24 30 14
19 -9 24 -19 24 -47z m-1303 -1 c12 -13 20 -16 29 -9 16 13 29 -38 14 -56 -14
-17 28 -30 145 -44 l80 -10 -85 5 c-115 6 -195 22 -257 51 -43 20 -53 29 -53
50 0 22 3 24 29 18 17 -3 32 -2 36 4 10 17 44 13 62 -9z m118 10 c-3 -5 -12
-10 -18 -10 -7 0 -6 4 3 10 19 12 23 12 15 0z m926 -9 c-13 -23 -84 -59 -131
-66 -34 -4 -34 -4 -8 7 14 6 31 21 36 33 9 20 55 42 95 44 14 1 16 -3 8 -18z
m-2285 -36 c0 -23 -4 -35 -13 -35 -7 0 -13 10 -13 21 0 17 -4 20 -22 15 -13
-3 -29 -6 -37 -6 -8 0 -11 -6 -7 -15 3 -8 1 -15 -4 -15 -6 0 -10 5 -10 11 0 7
-10 9 -27 4 -33 -8 -39 -9 -164 -25 l-96 -13 13 -25 c7 -14 10 -30 7 -35 -10
-16 120 -1 230 26 53 13 97 21 97 17 0 -17 -278 -71 -322 -62 -16 3 -34 38
-40 77 -3 18 5 21 87 27 95 8 213 31 274 53 20 8 38 14 41 14 3 1 5 -15 6 -34z
m2640 -53 c-15 -15 -16 -15 -16 0 0 9 5 29 12 45 l12 28 4 -29 c2 -17 -3 -35
-12 -44z m415 27 c-12 -12 -25 -18 -28 -15 -9 9 18 36 35 36 12 0 11 -5 -7
-21z m-206 1 c3 -5 1 -10 -4 -10 -6 0 -11 5 -11 10 0 6 2 10 4 10 3 0 8 -4 11
-10z m95 0 c0 -5 -2 -10 -4 -10 -3 0 -8 5 -11 10 -3 6 -1 10 4 10 6 0 11 -4
11 -10z m-2665 -24 c-27 -13 -79 -33 -115 -46 -36 -12 -74 -27 -85 -33 -11 -6
-27 -12 -36 -14 -9 -1 -29 -7 -44 -13 -24 -9 -27 -14 -21 -45 7 -33 -5 -48
-19 -25 -4 6 -10 8 -15 5 -5 -3 -11 5 -13 17 -4 20 -4 20 -6 -4 -2 -45 34 -45
214 -2 17 4 18 3 4 -5 -24 -16 -184 -51 -228 -51 -32 0 -40 4 -45 23 -3 13
-15 34 -27 48 l-21 24 7 -32 c8 -38 -7 -44 -22 -10 -10 23 -9 75 2 86 4 3 15
-5 26 -17 15 -19 24 -22 51 -17 67 13 276 76 348 105 88 35 117 38 45 6z m540
14 c3 -5 -3 -10 -15 -10 -12 0 -18 5 -15 10 3 6 10 10 15 10 5 0 12 -4 15 -10z
m2285 0 c0 -5 -4 -10 -10 -10 -5 0 -10 5 -10 10 0 6 5 10 10 10 6 0 10 -4 10
-10z m-2242 -38 c3 -32 15 -41 27 -22 10 16 28 12 21 -5 -3 -8 -1 -15 4 -15 6
0 10 -5 10 -11 0 -6 -6 -9 -14 -6 -20 8 -28 -4 -14 -20 8 -11 7 -12 -6 -7 -9
3 -16 2 -16 -3 0 -5 11 -10 25 -11 19 -1 23 2 18 15 -5 13 -1 15 21 11 19 -4
31 0 40 14 9 12 16 16 21 9 3 -6 17 -11 31 -11 17 0 24 5 24 19 0 11 -4 23
-10 26 -5 3 -10 10 -10 14 0 12 39 21 46 10 3 -5 15 -9 27 -9 20 -1 21 -2 5
-14 -21 -15 -23 -28 -5 -25 6 1 26 1 44 0 39 -1 37 -10 -18 -91 -52 -78 -96
-119 -154 -146 -112 -53 -206 -10 -230 105 -5 25 -4 32 5 26 7 -5 6 3 -3 21
-8 16 -17 58 -20 94 l-6 65 15 -47 c8 -27 21 -48 28 -48 7 0 18 -10 24 -22 6
-13 11 -17 11 -10 1 6 8 12 16 12 8 0 15 6 15 13 0 8 4 7 10 -3 9 -13 11 -13
20 0 15 23 12 27 -19 22 -38 -5 -44 7 -23 51 20 43 36 43 40 -1z m2341 -52 c5
-19 12 -57 16 -83 4 -27 23 -81 43 -120 46 -91 53 -107 44 -107 -14 0 -101
176 -107 216 -3 21 -7 50 -10 64 -2 14 -4 30 -4 36 -1 6 -13 29 -27 50 l-26
39 31 -30 c17 -16 35 -45 40 -65z m-2179 60 c0 -5 -7 -10 -15 -10 -8 0 -15 5
-15 10 0 6 7 10 15 10 8 0 15 -4 15 -10z m2080 -10 c0 -5 -5 -10 -11 -10 -5 0
-7 5 -4 10 3 6 8 10 11 10 2 0 4 -4 4 -10z m-3383 -22 c-3 -8 -6 -5 -6 6 -1
11 2 17 5 13 3 -3 4 -12 1 -19z m910 -4 c-16 -14 -30 -24 -33 -21 -7 7 7 37
15 33 4 -3 13 -1 21 5 27 16 25 9 -3 -17z m-47 -49 c0 -8 -8 -15 -17 -15 -20
0 -53 -28 -53 -46 0 -7 11 -25 25 -40 14 -15 25 -32 25 -38 0 -6 -5 -3 -11 7
-5 9 -17 17 -25 17 -8 0 -12 -5 -9 -10 4 -6 3 -10 -2 -9 -17 4 -63 -14 -57
-22 3 -5 0 -9 -5 -9 -6 0 -11 9 -11 20 0 14 7 20 24 20 28 0 59 31 38 37 -6 3
-10 9 -7 13 3 5 -8 4 -25 -2 -38 -13 -51 -4 -18 13 12 6 27 18 31 25 4 8 13
14 20 14 7 0 23 9 37 20 30 24 40 25 40 5z m2090 -46 c0 -6 -4 -7 -10 -4 -5 3
-10 11 -10 16 0 6 5 7 10 4 6 -3 10 -11 10 -16z m111 -14 c5 4 9 -3 9 -14 0
-12 6 -21 14 -21 15 0 26 -29 26 -69 l0 -24 -25 23 c-14 13 -25 29 -25 35 0 7
-9 20 -20 30 -21 19 -23 44 -5 57 6 4 11 1 13 -7 2 -9 8 -13 13 -10z m136 19
c-3 -3 -12 -4 -19 -1 -8 3 -5 6 6 6 11 1 17 -2 13 -5z m263 -27 c0 -5 -4 -5
-10 -2 -5 3 -10 14 -10 23 0 15 2 15 10 2 5 -8 10 -19 10 -23z m-2764 -1 c1
-16 -4 -26 -15 -28 -29 -5 -7 -64 30 -84 42 -21 31 -28 -14 -9 -21 9 -43 28
-52 46 -13 25 -19 28 -31 18 -8 -6 -14 -20 -14 -30 0 -22 -11 -24 -28 -7 -9 9
-16 7 -32 -9 -18 -20 -18 -25 -6 -55 7 -18 12 -41 11 -50 -3 -15 4 -18 41 -18
42 0 44 -1 33 -21 -6 -12 -9 -32 -6 -45 2 -14 0 -27 -4 -30 -5 -3 -9 0 -9 5 0
6 -7 11 -15 11 -8 0 -15 5 -15 10 0 6 -7 10 -15 10 -9 0 -21 11 -27 25 -14 30
-28 16 -28 -28 0 -18 -4 -26 -11 -21 -6 3 -9 19 -7 34 4 29 -9 31 -39 7 -10
-7 -13 -3 -14 14 -1 21 -2 20 -15 -10 -13 -29 -13 -36 0 -56 20 -31 8 -40 -15
-11 -20 25 -26 86 -9 86 6 0 10 8 10 18 0 10 14 29 32 42 30 22 32 22 45 5 10
-15 10 -20 0 -27 -8 -5 -7 -8 5 -8 10 0 24 13 32 29 14 26 14 30 -3 45 -20 19
-35 21 -25 4 4 -7 3 -8 -4 -4 -6 4 -21 2 -32 -4 -17 -9 -20 -8 -20 9 0 11 -14
36 -30 55 l-31 35 32 -12 c17 -7 40 -24 50 -38 38 -54 105 -6 89 65 -9 41 -2
45 44 21 37 -19 43 -19 51 4 3 11 16 22 28 24 12 2 24 5 27 6 3 0 6 -10 6 -23z
m3001 -43 c-3 -10 -5 -4 -5 12 0 17 2 24 5 18 2 -7 2 -21 0 -30z m-3628 13
c-9 -10 -88 -33 -83 -25 3 5 1 9 -5 9 -5 0 -12 -5 -14 -10 -3 -6 -4 -5 -3 2 1
7 16 16 32 19 35 8 79 11 73 5z m3236 -5 c10 -17 -12 -21 -25 -6 -10 12 -10
15 3 15 9 0 18 -4 22 -9z m-3196 -30 c19 -12 23 -41 5 -34 -8 3 -14 0 -14 -7
0 -7 -11 -21 -25 -32 -36 -28 -31 -35 23 -33 68 3 109 13 180 47 47 22 72 27
94 23 40 -9 28 -18 -59 -44 -40 -12 -94 -31 -120 -43 -26 -12 -51 -21 -55 -20
-5 1 -8 -5 -8 -13 0 -8 5 -15 12 -15 6 0 8 -3 5 -7 -4 -3 -19 6 -33 20 -39 39
-87 40 -119 3 -11 -13 -33 -26 -50 -30 -16 -4 -46 -22 -65 -39 -33 -30 -33
-30 -10 -3 14 16 35 39 48 52 12 13 22 29 22 35 0 7 3 9 7 6 10 -11 33 13 33
34 0 11 -5 19 -11 19 -5 0 -7 5 -4 10 4 6 11 8 16 4 5 -3 8 0 7 8 -2 8 4 12
15 10 9 -2 17 3 17 11 0 7 15 21 33 30 39 19 38 19 56 8z m2705 -7 c12 -30 6
-44 -25 -59 -34 -18 -45 -15 -32 9 8 14 12 16 32 16 4 0 6 11 3 25 -5 27 12
35 22 9z m-949 -14 c-59 -39 -251 -113 -345 -132 -84 -18 -118 -19 -303 -14
-127 4 -206 3 -205 -3 3 -10 -1 -11 -33 -11 -11 0 -18 4 -15 9 3 5 -26 12 -64
16 -72 7 -84 13 -75 37 7 18 84 68 106 68 10 0 59 -14 110 -30 51 -17 134 -38
183 -47 84 -15 98 -15 186 1 52 9 121 19 152 21 32 3 66 9 75 14 10 6 34 13
53 16 19 3 69 21 110 39 86 39 108 44 65 16z m1822 -22 c-3 -8 -6 -5 -6 6 -1
11 2 17 5 13 3 -3 4 -12 1 -19z m-977 -8 c0 -5 -4 -10 -10 -10 -5 0 -10 5 -10
10 0 6 5 10 10 10 6 0 10 -4 10 -10z m-92 -27 c29 -7 10 -23 -28 -22 -14 0
-19 3 -12 6 6 2 10 9 6 14 -6 11 2 11 34 2z m76 -22 c3 -5 -6 -8 -19 -8 -14 0
-25 3 -25 8 0 5 9 9 19 9 11 0 22 -4 25 -9z m66 5 c0 -2 -7 -7 -16 -10 -8 -3
-12 -2 -9 4 6 10 25 14 25 6z m120 -17 c0 -4 -7 -6 -15 -3 -8 4 -15 10 -15 15
0 4 7 6 15 3 8 -4 15 -10 15 -15z m245 -19 c-3 -5 -16 -10 -29 -10 -20 0 -23
-4 -20 -37 4 -54 -4 -73 -30 -73 -34 0 -46 19 -46 71 l0 48 43 4 c83 7 88 7
82 -3z m-287 -45 c-6 -13 -15 -22 -19 -19 -5 2 -1 14 9 24 22 26 24 25 10 -5z
m-2133 5 c4 -6 11 -8 16 -5 12 8 11 -16 -1 -35 -8 -12 -10 -12 -11 5 -1 11 -5
4 -11 -17 -5 -20 -18 -44 -29 -54 -19 -17 -19 -16 -19 49 0 64 1 67 24 67 14
0 28 -5 31 -10z m183 -20 c3 -21 2 -22 -12 -11 -19 16 -21 44 -3 39 6 -3 14
-15 15 -28z m-868 16 c0 -3 -4 -8 -10 -11 -5 -3 -10 -1 -10 4 0 6 5 11 10 11
6 0 10 -2 10 -4z m15 -48 c-11 -35 -35 -69 -44 -63 -5 3 -33 -38 -62 -90 -29
-53 -59 -95 -67 -95 -12 0 -12 4 2 23 18 24 74 110 128 194 34 55 54 69 43 31z
m675 -38 c0 -11 -4 -20 -9 -20 -5 0 -7 9 -4 20 3 11 7 20 9 20 2 0 4 -9 4 -20z
m1315 -50 c-3 -5 -13 -10 -21 -10 -8 0 -12 5 -9 10 3 6 13 10 21 10 8 0 12 -4
9 -10z m322 -18 c105 -13 84 -25 -32 -19 -62 4 -128 13 -150 22 l-40 16 80 -6
c44 -3 108 -9 142 -13z m-515 -28 c-63 -19 -135 -45 -160 -58 -26 -12 -92 -40
-147 -60 -147 -55 -279 -129 -329 -185 -33 -37 -45 -27 -48 40 -4 76 -20 91
-70 67 -31 -15 -36 -25 -77 -152 -24 -75 -47 -139 -52 -142 -18 -11 -8 -43 19
-63 26 -20 26 -22 9 -35 -11 -8 -25 -12 -32 -10 -7 3 -41 47 -74 97 -67 102
-307 348 -398 410 -73 49 -144 71 -225 70 -38 -1 -70 3 -73 7 -24 38 232 39
318 1 27 -12 63 -21 81 -21 36 0 213 -43 266 -65 84 -34 188 -39 235 -9 28 17
190 42 250 39 55 -3 112 16 121 40 5 12 23 15 83 15 87 0 209 14 296 34 115
27 119 15 7 -20z m-1152 16 c11 -7 2 -10 -32 -10 -27 0 -48 5 -48 10 0 13 60
13 80 0z m2303 -46 c-1 -16 -10 -55 -19 -87 -14 -46 -15 -62 -6 -83 7 -14 8
-23 3 -20 -14 9 -34 -80 -29 -128 3 -24 2 -50 -3 -58 -7 -10 -9 -10 -9 0 0 6
-6 12 -14 12 -34 0 -44 42 -62 252 l-7 78 56 24 c30 14 58 30 62 36 12 20 30
3 28 -26z m-228 -5 c6 -6 -3 -7 -25 -3 -35 6 -35 6 -12 -10 12 -10 22 -25 22
-35 0 -22 -22 -42 -36 -33 -18 13 -54 64 -54 78 0 23 81 26 105 3z m-1642 1
c7 0 4 -5 -6 -11 -22 -13 -67 -1 -46 12 8 5 20 7 27 4 8 -3 19 -5 25 -5z
m1317 -41 c0 -6 -4 -7 -10 -4 -5 3 -10 11 -10 16 0 6 5 7 10 4 6 -3 10 -11 10
-16z m-425 -19 c3 -5 1 -10 -4 -10 -6 0 -11 5 -11 10 0 6 2 10 4 10 3 0 8 -4
11 -10z m-1790 -27 c-9 -8 -19 -13 -22 -9 -9 8 18 37 28 30 5 -3 2 -12 -6 -21z
m1575 18 c0 -14 -18 -23 -31 -15 -8 4 -7 9 2 15 18 11 29 11 29 0z m614 -34
c-7 -19 -13 -21 -32 -8 -12 7 -12 12 -1 29 11 18 16 19 27 9 7 -8 10 -21 6
-30z m230 18 c27 -25 82 -132 73 -141 -3 -3 -12 5 -22 18 -9 13 -34 47 -55 77
-22 30 -40 58 -40 63 0 15 17 8 44 -17z m514 -11 c3 -26 -4 -34 -8 -9 -1 6 -6
18 -12 29 -8 14 -7 17 4 14 7 -3 15 -18 16 -34z m-3148 16 c0 -5 -4 -10 -10
-10 -5 0 -10 5 -10 10 0 6 5 10 10 10 6 0 10 -4 10 -10z m2110 -10 c0 -5 -5
-10 -11 -10 -5 0 -7 5 -4 10 3 6 8 10 11 10 2 0 4 -4 4 -10z m1359 -34 c23
-36 25 -46 13 -46 -7 0 -42 63 -42 75 0 12 10 2 29 -29z m-3352 -3 c-3 -26
-27 -46 -27 -23 0 14 19 50 26 50 2 0 3 -12 1 -27z m1889 -11 c-9 -8 -26 10
-26 26 1 15 2 15 15 -2 8 -11 13 -21 11 -24z m244 28 c0 -5 -4 -10 -10 -10 -5
0 -10 5 -10 10 0 6 5 10 10 10 6 0 10 -4 10 -10z m195 -10 c3 -5 1 -10 -4 -10
-6 0 -11 5 -11 10 0 6 2 10 4 10 3 0 8 -4 11 -10z m-354 -14 c5 3 9 1 9 -5 0
-5 -4 -13 -10 -16 -5 -3 -10 -4 -10 -1 0 2 -2 10 -3 18 -2 7 -2 10 0 5 3 -4 9
-5 14 -1z m-2061 -6 c0 -5 -4 -10 -10 -10 -5 0 -10 5 -10 10 0 6 5 10 10 10 6
0 10 -4 10 -10z m210 -25 c-7 -9 -15 -13 -18 -10 -3 2 1 11 8 20 7 9 15 13 18
10 3 -2 -1 -11 -8 -20z m1937 3 c-3 -8 -6 -5 -6 6 -1 11 2 17 5 13 3 -3 4 -12
1 -19z m176 6 c-3 -15 -20 -15 -26 0 -4 9 0 13 11 12 9 -2 16 -7 15 -12z m157
0 c0 -8 -4 -12 -10 -9 -5 3 -10 10 -10 16 0 5 5 9 10 9 6 0 10 -7 10 -16z
m565 -12 c-8 -8 -25 10 -19 20 4 6 9 5 15 -3 4 -7 6 -15 4 -17z m-2725 -12 c0
-5 -5 -10 -11 -10 -5 0 -7 5 -4 10 3 6 8 10 11 10 2 0 4 -4 4 -10z m180 -5
c-6 -8 -9 -19 -6 -24 9 -14 -14 -25 -27 -12 -7 7 -5 16 8 31 21 23 44 28 25 5z
m1240 0 c0 -8 -4 -15 -10 -15 -5 0 -10 7 -10 15 0 8 5 15 10 15 6 0 10 -7 10
-15z m620 5 c0 -5 -4 -10 -10 -10 -5 0 -10 5 -10 10 0 6 5 10 10 10 6 0 10 -4
10 -10z m820 -1 c0 -5 -5 -7 -12 -3 -8 5 -9 2 -5 -9 3 -10 2 -17 -3 -17 -11 0
-13 23 -3 33 10 10 23 8 23 -4z m-149 -57 c-6 -2 -8 -9 -5 -14 5 -7 2 -8 -5
-3 -9 5 -10 10 -2 18 6 6 12 22 12 37 2 23 2 22 6 -5 3 -16 0 -31 -6 -33z
m-2844 16 c-3 -7 -5 -2 -5 12 0 14 2 19 5 13 2 -7 2 -19 0 -25z m2056 0 c-2
-48 -2 -48 -13 -48 -6 0 -10 17 -8 40 1 22 7 40 12 40 6 0 10 -15 9 -32z
m-2083 18 c0 -3 -4 -8 -10 -11 -5 -3 -10 -1 -10 4 0 6 5 11 10 11 6 0 10 -2
10 -4z m210 -5 c0 -12 -20 -25 -27 -18 -7 7 6 27 18 27 5 0 9 -4 9 -9z m2003
-3 c5 -16 -3 -38 -14 -38 -4 0 -6 7 -3 15 4 8 1 15 -5 15 -6 0 -11 5 -11 10 0
14 28 12 33 -2z m-2467 -25 c-10 -10 -19 5 -10 18 6 11 8 11 12 0 2 -7 1 -15
-2 -18z m74 -3 c0 -21 -15 -27 -25 -10 -7 12 2 30 16 30 5 0 9 -9 9 -20z m70
10 c0 -5 -4 -10 -10 -10 -5 0 -10 5 -10 10 0 6 5 10 10 10 6 0 10 -4 10 -10z
m210 0 c0 -5 -4 -10 -10 -10 -5 0 -10 5 -10 10 0 6 5 10 10 10 6 0 10 -4 10
-10z m2690 -15 c0 -14 -4 -25 -10 -25 -5 0 -10 11 -10 25 0 14 5 25 10 25 6 0
10 -11 10 -25z m146 -12 c-3 -4 -6 -1 -6 6 0 7 -4 9 -10 6 -6 -4 -7 1 -3 11 6
15 7 15 15 -1 6 -9 7 -19 4 -22z m-2676 -3 c-8 -5 -17 -7 -19 -4 -3 3 1 9 9
14 8 5 17 7 19 4 3 -3 -1 -9 -9 -14z m1110 6 c0 -14 -24 -29 -33 -19 -3 3 -3
11 0 19 7 18 33 18 33 0z m-1316 -22 c3 -8 2 -12 -4 -9 -6 3 -10 10 -10 16 0
14 7 11 14 -7z m326 6 c0 -5 -7 -10 -16 -10 -8 0 -12 5 -9 10 3 6 10 10 16 10
5 0 9 -4 9 -10z m2435 0 c-3 -5 -1 -10 6 -10 8 0 9 -3 0 -13 -6 -8 -8 -17 -4
-20 3 -4 1 -7 -5 -7 -6 0 -9 12 -7 28 5 34 4 32 11 32 3 0 2 -4 -1 -10z
m-2372 -29 c-3 -11 -11 -22 -19 -25 -17 -7 -17 -4 -3 28 13 29 30 26 22 -3z
m1786 -3 c-1 -31 -1 -31 -8 -8 -5 14 -6 28 -4 33 9 15 13 6 12 -25z m841 23
c0 -6 -4 -13 -10 -16 -5 -3 -10 1 -10 9 0 9 5 16 10 16 6 0 10 -4 10 -9z
m-2816 -16 c-4 -8 -8 -15 -10 -15 -2 0 -4 7 -4 15 0 8 4 15 10 15 5 0 7 -7 4
-15z m-334 -11 c0 -8 -4 -12 -10 -9 -5 3 -10 10 -10 16 0 5 5 9 10 9 6 0 10
-7 10 -16z m50 2 c0 -17 -14 -29 -23 -20 -8 8 3 34 14 34 5 0 9 -6 9 -14z
m160 -16 c-9 -17 -15 -19 -23 -10 -9 9 -7 15 7 26 25 18 31 12 16 -16z m1284
-11 c-8 -14 -34 -11 -34 4 0 8 3 17 7 20 9 9 34 -13 27 -24z m386 21 c0 -5 -5
-10 -11 -10 -5 0 -7 5 -4 10 3 6 8 10 11 10 2 0 4 -4 4 -10z m-590 -9 c0 -21
-13 -41 -27 -41 -10 0 -13 6 -9 16 3 9 6 20 6 25 0 5 7 9 15 9 8 0 15 -4 15
-9z m1118 -16 c-3 -3 -9 2 -12 12 -6 14 -5 15 5 6 7 -7 10 -15 7 -18z m-2246
-9 c6 -31 -6 -55 -16 -31 -9 24 -7 55 3 55 5 0 11 -11 13 -24z m88 -7 c0 -18
-2 -20 -15 -9 -13 11 -13 15 -3 21 18 12 18 12 18 -12z m1370 14 c0 -14 -19
-38 -25 -32 -8 8 5 39 16 39 5 0 9 -3 9 -7z m-1842 -35 c8 -8 9 -15 0 -25 -15
-18 -2 -29 17 -13 13 11 13 8 4 -19 -10 -29 -13 -31 -28 -16 -20 17 -31 11
-31 -18 0 -13 5 -17 14 -14 10 4 13 1 9 -8 -3 -8 -9 -12 -14 -9 -19 12 5 -82
26 -99 7 -6 6 -10 -2 -14 -17 -6 8 -55 53 -106 44 -48 43 -66 -1 -57 -5 1 -18
2 -27 3 -10 1 -18 5 -18 10 0 5 -6 15 -12 22 -7 8 -19 21 -26 30 -7 8 -18 15
-24 15 -7 0 -6 -5 2 -15 8 -9 10 -28 6 -50 -7 -34 -6 -35 17 -30 28 7 40 -5
31 -30 -4 -10 -13 -14 -23 -11 -13 5 -13 3 2 -8 15 -12 16 -14 2 -20 -8 -3
-15 -9 -14 -13 4 -24 -2 -35 -17 -29 -12 5 -15 2 -10 -9 3 -9 2 -13 -4 -10
-17 11 -11 43 11 58 20 15 13 32 -8 19 -18 -12 -45 -72 -32 -72 8 0 8 -4 -1
-15 -7 -8 -9 -15 -6 -15 4 0 0 -7 -8 -16 -9 -8 -14 -20 -11 -25 4 -5 1 -9 -4
-9 -6 0 -11 5 -11 10 0 24 -38 8 -53 -22 l-16 -33 6 43 c6 45 -4 54 -25 21 -7
-12 -16 -18 -19 -15 -3 3 0 12 7 21 10 12 10 15 -1 16 -8 1 -3 4 10 8 13 3 28
17 33 31 5 13 6 21 2 17 -4 -4 -13 1 -20 11 -21 27 -16 36 11 18 24 -16 25
-16 25 7 0 13 3 27 7 31 11 10 14 46 4 46 -4 0 -20 -11 -35 -25 -27 -25 -48
-24 -73 1 -14 13 -7 44 8 44 5 0 7 11 3 25 -4 15 -2 25 5 25 6 0 11 -6 11 -14
0 -21 33 -30 46 -12 12 17 29 22 19 6 -3 -5 -1 -10 4 -10 6 0 11 7 11 16 0 9
7 14 17 12 26 -5 26 -25 1 -31 -18 -5 -20 -9 -10 -19 9 -9 15 -9 24 0 7 7 20
12 31 12 14 0 17 5 12 21 -8 25 12 69 31 69 7 0 22 -9 33 -21 12 -13 21 -17
26 -10 3 6 1 11 -4 11 -6 0 -10 10 -8 22 1 15 -5 26 -21 33 -15 6 -21 16 -19
27 3 9 -1 25 -9 35 -18 24 -17 43 2 43 8 0 13 4 9 10 -3 5 -12 7 -20 3 -8 -3
-15 0 -15 6 0 6 -7 8 -16 4 -12 -4 -15 -2 -12 8 3 8 11 13 17 11 7 -1 9 2 5 9
-10 17 -14 59 -4 59 4 0 13 -7 20 -15 20 -24 35 -18 52 20 8 19 11 32 7 29 -5
-3 -9 0 -9 5 0 14 13 14 28 -1z m2082 4 c0 -5 -7 -9 -15 -9 -8 0 -15 4 -15 9
0 4 7 8 15 8 8 0 15 -4 15 -8z m-1920 -29 c0 -22 -2 -25 -10 -13 -13 20 -13
40 0 40 6 0 10 -12 10 -27z m660 9 c0 -10 -7 -27 -15 -38 -14 -18 -14 -17 -15
12 0 17 3 34 7 37 12 13 23 7 23 -11z m-302 -10 c4 -14 0 -15 -22 -6 -9 3 -16
10 -16 14 0 12 33 5 38 -8z m232 14 c0 -3 -4 -8 -10 -11 -5 -3 -10 -1 -10 4 0
6 5 11 10 11 6 0 10 -2 10 -4z m1390 -6 c0 -5 -4 -10 -10 -10 -5 0 -10 5 -10
10 0 6 5 10 10 10 6 0 10 -4 10 -10z m1357 -12 c-3 -8 -6 -5 -6 6 -1 11 2 17
5 13 3 -3 4 -12 1 -19z m-2897 3 c0 -5 -11 -8 -25 -8 -13 0 -22 3 -19 8 3 5
14 9 25 9 10 0 19 -4 19 -9z m676 -19 c-18 -16 -18 -16 -6 6 6 13 14 21 18 18
3 -4 -2 -14 -12 -24z m1654 -11 c-1 -13 -3 -13 -15 3 -19 26 -19 42 0 26 8 -7
15 -20 15 -29z m-2609 -18 c-12 -20 -14 -14 -5 12 4 9 9 14 11 11 3 -2 0 -13
-6 -23z m139 23 c0 -3 -4 -8 -10 -11 -5 -3 -10 -1 -10 4 0 6 5 11 10 11 6 0
10 -2 10 -4z m1028 -33 c-5 -25 -28 -28 -28 -4 0 12 6 21 16 21 9 0 14 -7 12
-17z m-653 -14 c0 -7 -8 -15 -17 -17 -18 -3 -25 18 -11 32 10 10 28 1 28 -15z
m-565 1 c0 -5 -4 -10 -10 -10 -5 0 -10 5 -10 10 0 6 5 10 10 10 6 0 10 -4 10
-10z m3246 -2 c4 -7 3 -8 -5 -4 -6 4 -18 2 -26 -4 -8 -7 -15 -8 -15 -3 0 23
33 32 46 11z m-3445 -48 c6 0 7 -5 3 -12 -4 -6 5 -3 19 8 15 10 27 22 27 27 0
11 30 8 30 -3 0 -5 -5 -10 -11 -10 -5 0 -7 -4 -4 -10 3 -6 -4 -10 -17 -10 -22
-1 -22 -1 -4 -15 17 -13 18 -16 3 -38 -11 -17 -23 -23 -45 -21 -29 2 -30 0
-21 -23 15 -39 3 -39 -16 0 -23 49 -22 80 5 127 l15 25 3 -22 c2 -13 8 -23 13
-23z m-147 -46 c9 -22 8 -24 -9 -18 -8 4 -15 12 -15 20 0 19 16 18 24 -2z
m3014 -26 c6 -6 34 -11 62 -11 27 0 50 -3 50 -7 0 -4 -18 -27 -40 -51 l-39
-44 -1 30 c0 36 -8 48 -37 64 -13 6 -23 16 -23 21 0 14 14 12 28 -2z m-2208
-28 c41 -4 65 -7 53 -8 -13 -1 -23 -8 -23 -16 0 -23 -48 -47 -103 -53 -50 -4
-54 -3 -102 41 l-50 45 75 -1 c41 0 109 -4 150 -8z m1570 -30 c29 18 43 10 17
-10 -14 -11 -29 -29 -32 -40 -4 -11 -10 -20 -15 -20 -6 0 -6 9 -1 23 5 13 7
36 5 53 -3 23 -2 24 4 7 5 -17 11 -20 22 -13z m200 -3 c0 -5 -4 -5 -10 -2 -5
3 -10 14 -10 23 0 15 2 15 10 2 5 -8 10 -19 10 -23z m-2147 2 c4 -14 2 -19 -8
-15 -7 2 -16 -2 -19 -11 -5 -12 -1 -14 14 -10 11 3 18 1 15 -3 -3 -5 -1 -11 5
-15 5 -3 10 -2 10 4 0 7 8 7 25 -1 16 -7 25 -19 25 -34 0 -17 4 -22 15 -18 11
5 15 -1 15 -20 0 -39 -16 -32 -40 19 -21 44 -39 58 -41 33 0 -10 -2 -10 -6 0
-10 25 -43 12 -60 -22 -10 -22 -21 -32 -30 -29 -7 3 -22 -2 -32 -11 -10 -9
-20 -14 -22 -11 -3 2 -6 -7 -7 -19 -1 -19 2 -23 16 -19 10 2 24 -3 31 -11 11
-13 11 -16 -3 -16 -9 0 -16 -6 -16 -12 0 -10 -2 -10 -9 0 -6 11 -14 8 -35 -11
l-26 -25 22 -6 c15 -4 27 0 35 11 7 9 16 14 19 11 8 -9 -5 -48 -17 -48 -5 0
-9 -7 -9 -16 0 -8 -4 -12 -10 -9 -5 3 -10 -1 -10 -10 0 -9 -4 -13 -10 -10 -5
3 -10 -3 -10 -15 0 -12 3 -19 8 -17 4 3 15 -6 25 -19 16 -21 16 -24 2 -24 -9
0 -13 -4 -10 -10 3 -5 0 -10 -8 -10 -11 0 -12 -10 -6 -50 11 -72 18 -90 35
-90 8 0 14 -5 14 -11 0 -16 59 -3 82 18 10 9 18 12 18 8 0 -4 8 -1 18 7 14 13
39 25 72 33 3 1 13 5 22 9 9 4 27 2 39 -5 16 -8 24 -9 27 -1 2 8 11 8 28 1 32
-12 30 -12 48 7 14 14 18 13 41 -12 17 -19 25 -22 25 -12 0 9 8 22 17 29 15
12 16 12 10 -4 -5 -14 -3 -16 11 -9 26 13 61 7 76 -13 12 -16 13 -16 19 -1 8
21 27 21 28 -1 0 -11 3 -13 6 -5 2 6 9 9 15 6 6 -4 14 0 19 7 7 11 9 10 9 -3
0 -25 15 -22 28 5 9 19 11 19 11 3 1 -11 6 -16 15 -13 7 3 19 0 25 -6 8 -8 11
-7 11 6 0 9 5 17 11 17 6 0 9 -10 7 -23 -6 -30 19 -56 34 -36 8 11 9 11 5 -3
-7 -22 3 -30 20 -16 11 8 12 7 8 -5 -9 -22 26 -17 44 7 11 14 15 15 22 5 7
-12 11 -11 19 1 8 11 9 8 4 -12 -9 -39 22 -50 47 -17 14 18 19 20 19 8 0 -9 7
-22 15 -29 18 -15 20 -66 4 -76 -9 -5 -10 1 -5 22 5 21 4 25 -4 14 -5 -8 -10
-22 -10 -31 0 -19 -30 -34 -31 -16 0 9 -2 9 -6 0 -8 -22 -23 -14 -23 12 0 14
5 25 10 25 6 0 10 7 10 15 0 8 -4 15 -9 15 -5 0 -17 7 -25 16 -9 8 -16 11 -16
5 0 -5 7 -16 15 -25 19 -19 19 -26 -1 -26 -11 0 -14 -6 -9 -20 9 -28 -8 -56
-22 -38 -6 7 -13 22 -16 33 -2 11 -3 5 -1 -14 2 -25 0 -31 -8 -23 -8 8 -15 7
-25 -6 -12 -16 -14 -16 -32 5 -21 25 -31 21 -31 -16 -1 -25 -1 -26 -16 -6 -16
19 -16 19 -9 -5 4 -14 4 -22 0 -18 -5 4 -11 25 -15 45 l-7 38 -8 -32 c-8 -36
-25 -35 -25 0 0 18 -2 19 -10 7 -5 -8 -7 -22 -4 -32 2 -9 0 -19 -6 -23 -6 -3
-10 3 -10 14 0 28 -26 27 -35 -1 -7 -22 -8 -22 -15 7 -7 28 -8 27 -10 -15 l-2
-45 -12 38 c-6 21 -15 34 -20 30 -4 -4 -14 1 -22 12 -14 19 -15 19 -20 -3 -7
-24 -19 -29 -28 -9 -5 10 -7 10 -12 0 -3 -7 -10 -13 -15 -13 -6 0 -8 4 -5 8 2
4 1 14 -5 22 -7 12 -9 10 -9 -7 0 -13 -4 -23 -10 -23 -5 0 -11 10 -11 23 -1
18 -3 16 -9 -8 -4 -16 -8 -24 -9 -17 -2 18 -19 15 -24 -5 -4 -15 -6 -15 -12 5
-8 23 -20 28 -30 12 -3 -5 -11 -10 -16 -10 -6 0 -7 6 -3 13 6 8 3 8 -9 -1 -19
-16 -37 -8 -37 16 -1 16 -1 16 -14 0 -12 -16 -14 -16 -29 0 -12 12 -17 13 -17
3 0 -7 -6 -11 -14 -8 -8 3 -17 1 -20 -6 -3 -8 -10 -6 -20 7 -9 11 -16 14 -16
7 0 -7 -4 -9 -10 -6 -5 3 -10 1 -10 -5 0 -5 -13 -9 -30 -8 -17 1 -30 8 -30 15
0 7 -4 13 -10 13 -5 0 -11 12 -11 28 l-2 27 -4 -26 c-3 -21 -9 -26 -24 -22
-10 3 -19 10 -19 15 0 5 -6 8 -12 7 -27 -3 -37 1 -32 14 3 8 -2 20 -11 27 -14
12 -16 10 -10 -16 6 -26 5 -27 -8 -12 -9 12 -17 14 -24 7 -8 -8 -15 -4 -25 10
-8 12 -17 19 -20 16 -7 -7 -36 62 -48 115 -13 59 -13 157 0 165 6 4 17 -9 25
-27 9 -20 14 -26 15 -15 0 10 3 16 8 14 4 -3 13 1 20 9 7 8 9 14 5 14 -4 0 -9
20 -10 46 -1 39 2 47 23 56 13 6 24 17 24 24 0 18 -23 30 -28 15 -3 -8 -8 -9
-17 -1 -10 8 -14 4 -19 -15 -8 -30 -26 -33 -26 -5 0 11 -7 23 -15 26 -8 4 -15
10 -15 15 0 13 23 6 36 -10 9 -11 12 -11 18 4 4 10 2 21 -3 25 -18 10 -7 48
16 59 25 11 56 5 47 -10 -3 -5 2 -6 10 -3 9 3 16 1 16 -5 0 -6 -7 -11 -15 -11
-16 0 -20 -27 -7 -47 9 -15 44 -11 50 6 2 6 -2 19 -9 27 -11 14 -10 18 4 29
20 15 22 35 3 35 -7 0 -19 7 -26 15 -10 12 -10 15 4 15 9 0 16 8 16 19 0 29
17 35 25 9 l7 -21 18 23 c18 23 40 20 40 -6 0 -20 14 -18 35 6 10 11 15 20 11
20 -3 0 0 14 9 30 18 35 31 38 38 9z m1887 11 c0 -5 -2 -10 -4 -10 -3 0 -8 5
-11 10 -3 6 -1 10 4 10 6 0 11 -4 11 -10z m463 -26 c10 -19 13 -33 8 -29 -13
8 -41 65 -32 65 4 0 15 -16 24 -36z m-533 -39 c-11 -21 -28 -48 -38 -59 -28
-31 -34 -56 -17 -62 9 -4 15 -19 15 -38 l-1 -31 -19 40 c-11 22 -19 46 -20 53
0 6 -12 12 -26 12 -35 0 -26 22 15 34 18 5 49 28 69 52 20 23 38 41 39 40 2
-1 -6 -20 -17 -41z m-2276 28 c-5 -5 -12 -12 -16 -18 -4 -6 -8 -2 -8 8 0 9 7
17 17 17 9 0 12 -3 7 -7z m1472 -4 c3 -6 20 -9 38 -6 l31 6 -30 -14 c-16 -8
-26 -14 -21 -15 5 0 7 -3 4 -6 -3 -3 -17 6 -31 20 -17 17 -21 26 -12 26 8 0
17 -5 21 -11z m424 -17 c0 -15 -2 -15 -10 -2 -13 20 -13 33 0 25 6 -3 10 -14
10 -23z m1604 -38 c2 -6 -2 -11 -10 -11 -7 0 -15 6 -18 14 -8 19 -86 18 -86
-2 0 -18 -17 -20 -22 -3 -2 6 -12 -5 -21 -24 -9 -20 -14 -43 -11 -52 3 -9 1
-16 -4 -16 -6 0 -12 10 -14 23 -2 18 -8 21 -35 19 -42 -4 -43 15 -3 29 16 6
27 16 24 21 -4 6 -1 9 6 6 8 -2 36 7 64 22 l51 25 37 -20 c21 -11 40 -25 42
-31z m-1924 26 c0 -5 -2 -10 -4 -10 -3 0 -8 5 -11 10 -3 6 -1 10 4 10 6 0 11
-4 11 -10z m825 -49 c-16 -62 -24 -74 -20 -32 2 30 25 94 31 88 2 -1 -3 -27
-11 -56z m1246 -7 c-15 -20 -21 -22 -21 -10 0 9 7 19 16 23 9 3 13 12 9 22 -5
12 -3 13 6 4 9 -9 7 -18 -10 -39z m-2159 -39 c-13 -27 -49 -36 -38 -9 3 9 6
30 6 47 l0 31 22 -21 c19 -19 20 -26 10 -48z m1940 35 c3 -18 -1 -35 -9 -42
-19 -16 -29 -2 -12 18 13 16 12 17 -9 12 -16 -5 -25 -1 -33 14 -9 16 -8 19 3
12 22 -14 38 -13 38 2 0 27 18 14 22 -16z m-2117 -28 c4 -11 -3 -9 -21 8 -20
19 -26 21 -21 8 4 -10 2 -18 -2 -18 -12 0 -19 21 -14 37 6 16 48 -10 58 -35z
m-525 30 c0 -4 -4 -12 -9 -17 -4 -6 -11 -23 -15 -38 -6 -26 -5 -27 15 -17 11
7 23 9 26 6 8 -7 -7 -26 -21 -26 -6 0 -16 -15 -21 -32 -6 -18 -14 -33 -20 -33
-5 -1 -20 -6 -31 -13 -12 -6 -23 -9 -26 -7 -2 2 -4 -5 -5 -15 -1 -11 3 -22 8
-25 11 -7 2 -25 -12 -25 -5 0 -9 6 -9 14 0 7 -7 19 -15 26 -12 10 -18 10 -31
-1 -10 -8 -18 -9 -22 -3 -11 17 -41 24 -48 12 -4 -5 -1 -14 6 -18 8 -5 7 -9
-4 -13 -19 -8 -46 1 -46 15 0 5 -8 8 -18 6 -18 -3 -22 1 -22 21 0 9 63 20 122
23 15 0 25 5 21 11 -3 6 6 8 26 5 25 -4 31 -1 31 13 0 10 5 21 11 25 6 3 26
30 45 60 19 30 41 54 49 54 8 0 15 -4 15 -8z m623 -22 c3 -11 1 -18 -4 -14 -5
3 -9 12 -9 20 0 20 7 17 13 -6z m2111 -4 c-6 -15 -24 -23 -24 -11 0 8 24 34
28 30 1 -1 0 -10 -4 -19z m-2674 4 c0 -5 -5 -10 -11 -10 -5 0 -7 5 -4 10 3 6
8 10 11 10 2 0 4 -4 4 -10z m362 -22 c-5 -31 -5 -31 -13 -9 -9 23 -5 41 10 41
4 0 5 -14 3 -32z m2038 17 c14 -17 5 -69 -10 -60 -21 13 -9 -7 18 -30 28 -24
27 -40 -3 -29 -9 4 -25 25 -35 48 l-18 41 -11 -28 c-6 -16 -9 -33 -6 -37 3 -5
-4 -14 -15 -20 -21 -11 -26 -40 -10 -56 7 -7 7 -21 -1 -42 -12 -34 -31 -45
-22 -13 6 25 -11 35 -28 15 -10 -12 -10 -20 -1 -35 19 -30 13 -36 -8 -10 -25
30 -25 43 1 67 13 12 18 26 15 39 -4 15 9 43 45 93 51 73 67 83 89 57z m-1550
-20 c0 -14 -4 -25 -10 -25 -5 0 -10 11 -10 25 0 14 5 25 10 25 6 0 10 -11 10
-25z m-1216 -22 c-4 -16 -13 -39 -20 -53 -13 -24 -13 -23 -12 20 1 52 4 60 24
60 11 0 13 -7 8 -27z m910 -5 c-12 -39 -63 -55 -65 -20 0 10 -3 12 -6 5 -2 -7
-9 -13 -15 -13 -6 0 -3 9 7 20 21 24 37 26 29 5 -9 -23 24 -19 38 5 17 26 21
25 12 -2z m-1540 4 c3 -5 -1 -9 -9 -9 -8 0 -15 4 -15 9 0 4 4 8 9 8 6 0 12 -4
15 -8z m1110 0 c3 -5 -6 -19 -19 -30 -24 -21 -25 -21 -35 -2 -11 21 2 36 22
24 7 -4 8 -3 4 4 -4 7 -1 12 8 12 8 0 17 -4 20 -8z m1126 -6 c0 -8 -4 -18 -10
-21 -5 -3 -10 3 -10 14 0 12 5 21 10 21 6 0 10 -6 10 -14z m1517 -18 c-3 -8
-6 -5 -6 6 -1 11 2 17 5 13 3 -3 4 -12 1 -19z m-1270 6 c-3 -3 -12 -4 -19 -1
-8 3 -5 6 6 6 11 1 17 -2 13 -5z m-1252 -16 c14 -6 25 -15 25 -19 0 -5 -12 -3
-26 3 -23 11 -28 10 -40 -7 -11 -14 -17 -16 -26 -7 -8 8 -8 15 2 27 15 18 30
19 65 3z m434 -19 c-13 -26 -20 -21 -12 9 3 12 9 19 14 16 5 -3 4 -14 -2 -25z
m-519 10 c0 -5 -4 -8 -10 -4 -5 3 -16 -7 -24 -22 -8 -15 -15 -22 -16 -15 0 22
20 52 35 52 8 0 15 -5 15 -11z m-683 -21 c-3 -8 -6 -5 -6 6 -1 11 2 17 5 13 3
-3 4 -12 1 -19z m1897 -18 c4 -25 3 -31 -4 -20 -5 8 -10 26 -10 39 0 32 6 24
14 -19z m-747 9 c2 -16 -1 -19 -9 -11 -5 5 -7 15 -4 21 10 15 12 14 13 -10z
m243 11 c0 -5 -4 -10 -10 -10 -5 0 -10 5 -10 10 0 6 5 10 10 10 6 0 10 -4 10
-10z m365 -18 c-8 -8 -25 10 -19 20 4 6 9 5 15 -3 4 -7 6 -15 4 -17z m1559
-44 c-10 -16 -24 12 -23 47 l1 30 14 -33 c8 -18 12 -38 8 -44z m-2384 52 c0
-5 -2 -10 -4 -10 -3 0 -8 5 -11 10 -3 6 -1 10 4 10 6 0 11 -4 11 -10z m1216
-28 c-23 -23 -33 -6 -10 19 12 13 20 16 22 9 3 -7 -3 -19 -12 -28z m454 34 c0
-2 3 -11 6 -20 4 -11 1 -16 -10 -16 -15 0 -29 -36 -35 -92 -1 -4 -20 -17 -43
-29 l-42 -21 30 29 c34 34 61 106 42 112 -6 2 0 12 13 22 23 18 39 24 39 15z
m-1623 -38 c-3 -7 -5 -2 -5 12 0 14 2 19 5 13 2 -7 2 -19 0 -25z m1488 22 c8
-13 -5 -13 -25 0 -13 8 -13 10 2 10 9 0 20 -4 23 -10z m-2640 -41 c-4 -6 -12
-3 -20 8 -10 13 -10 20 -2 25 14 8 31 -18 22 -33z m1539 17 c-6 -16 -24 -23
-24 -8 0 10 22 33 27 28 2 -2 1 -11 -3 -20z m616 14 c0 -5 -2 -10 -4 -10 -3 0
-8 5 -11 10 -3 6 -1 10 4 10 6 0 11 -4 11 -10z m430 -9 c5 -11 10 -26 9 -33 0
-7 -5 -2 -10 11 -7 18 -15 22 -34 19 -20 -4 -23 -3 -14 8 16 20 37 17 49 -5z
m-1870 -31 c0 -5 -6 -7 -14 -4 -7 3 -23 -6 -34 -21 -11 -14 -23 -21 -26 -16
-8 12 52 63 65 55 5 -3 9 -9 9 -14z m78 -6 c-14 -14 -16 -14 -22 1 -3 9 -2 13
3 10 5 -3 13 0 16 6 4 5 10 8 13 4 3 -3 -1 -12 -10 -21z m160 1 c-3 -3 -9 2
-12 12 -6 14 -5 15 5 6 7 -7 10 -15 7 -18z m1569 5 c8 -12 9 -21 3 -25 -6 -3
-10 1 -10 9 0 8 -8 20 -17 25 -14 8 -15 10 -3 11 8 0 21 -9 27 -20z m-2577 6
c0 -3 -4 -8 -10 -11 -5 -3 -10 -1 -10 4 0 6 5 11 10 11 6 0 10 -2 10 -4z m670
-11 c0 -8 -2 -15 -4 -15 -2 0 -6 7 -10 15 -3 8 -1 15 4 15 6 0 10 -7 10 -15z
m-720 1 c0 -2 -7 -9 -15 -16 -13 -11 -14 -10 -9 4 5 14 24 23 24 12z m315 -33
c0 -29 5 -40 23 -49 32 -16 41 -28 15 -20 -14 5 -23 3 -23 -3 0 -6 5 -11 10
-11 6 0 10 -6 10 -14 0 -8 3 -16 8 -19 4 -2 1 -2 -7 0 -7 2 -19 -1 -26 -7 -9
-8 -14 -2 -19 22 -4 20 -2 34 6 39 9 6 7 13 -6 28 -16 18 -17 25 -8 46 15 33
17 32 17 -12z m2150 17 c17 0 36 -5 43 -12 7 -7 12 -8 12 -2 0 17 33 13 59 -8
17 -13 27 -15 32 -7 3 6 11 10 17 8 6 -2 -1 -17 -14 -34 -14 -16 -22 -23 -19
-15 3 9 -5 26 -19 39 -23 22 -26 22 -41 7 -18 -18 -28 -20 -39 -8 -4 4 -24 12
-44 17 -19 6 -37 17 -40 25 -4 12 -2 13 9 3 7 -7 27 -13 44 -13z m945 -86 c-4
-33 -8 -53 -9 -46 -2 21 -21 3 -21 -19 0 -15 -6 -20 -22 -17 -19 3 -22 10 -24
53 -3 50 -3 50 11 20 l14 -30 1 34 c0 33 1 34 15 15 15 -18 16 -15 13 34 -2
28 2 54 7 55 17 6 23 -37 15 -99z m-2215 85 c11 -16 1 -19 -13 -3 -7 8 -8 14
-3 14 5 0 13 -5 16 -11z m383 -4 c4 -4 2 -5 -5 -1 -6 3 -13 -1 -15 -9 -2 -13
-6 -13 -20 4 -16 19 -15 19 8 17 13 -2 27 -6 32 -11z m-1558 -5 c0 -5 -5 -10
-11 -10 -5 0 -7 5 -4 10 3 6 8 10 11 10 2 0 4 -4 4 -10z m410 3 c0 -5 -5 -15
-10 -23 -7 -11 -10 -11 -10 -2 0 7 -5 10 -11 7 -6 -5 -4 -11 7 -19 16 -12 16
-13 0 -19 -24 -9 -36 0 -29 21 10 27 53 55 53 35z m1533 -5 c12 -7 25 -17 28
-22 4 -4 16 1 27 12 14 14 23 17 31 9 6 -6 11 -8 11 -3 0 4 7 1 15 -8 23 -23
18 -28 -14 -12 -26 14 -30 14 -45 -3 -10 -11 -14 -25 -9 -37 6 -17 5 -17 -10
-5 -9 7 -14 17 -11 22 3 5 0 9 -5 9 -6 0 -11 -5 -11 -12 0 -6 -3 -8 -7 -5 -3
4 -12 2 -20 -5 -12 -10 -13 -7 -8 15 6 24 4 27 -19 27 -27 0 -35 15 -13 23 21
9 36 7 60 -5z m1021 -21 c3 -12 1 -26 -4 -31 -7 -7 -10 -2 -10 11 0 12 -4 25
-10 28 -15 9 -12 25 4 19 8 -3 17 -15 20 -27z m-2514 3 c6 -12 16 -18 23 -14
9 5 8 3 0 -7 -18 -18 -16 -30 2 -23 8 4 15 1 15 -5 0 -26 -36 -9 -48 22 -10
26 -14 29 -22 17 -11 -17 -13 -10 -4 14 8 22 21 20 34 -4z m570 5 c-14 -17
-40 -20 -40 -5 0 5 6 7 14 4 8 -3 17 -1 21 5 3 6 9 11 12 11 3 0 0 -7 -7 -15z
m370 6 c0 -6 -4 -13 -10 -16 -5 -3 -10 1 -10 9 0 9 5 16 10 16 6 0 10 -4 10
-9z m230 -1 c0 -5 -2 -10 -4 -10 -3 0 -8 5 -11 10 -3 6 -1 10 4 10 6 0 11 -4
11 -10z m-970 -10 c0 -5 -5 -10 -11 -10 -5 0 -7 5 -4 10 3 6 8 10 11 10 2 0 4
-4 4 -10z m506 -16 c-4 -9 -9 -15 -11 -12 -3 3 -3 13 1 22 4 9 9 15 11 12 3
-3 3 -13 -1 -22z m-197 -16 c14 -16 22 -28 18 -28 -10 0 -47 42 -47 54 0 5 1
7 3 5 1 -2 13 -16 26 -31z m565 16 c5 -14 4 -15 -9 -4 -17 14 -19 20 -6 20 5
0 12 -7 15 -16z m-894 -14 c0 -5 -4 -10 -10 -10 -5 0 -10 5 -10 10 0 6 5 10
10 10 6 0 10 -4 10 -10z m190 -6 c0 -8 -5 -12 -10 -9 -6 4 -8 11 -5 16 9 14
15 11 15 -7z m-268 -26 c-7 -7 -12 -8 -12 -2 0 6 3 14 7 17 3 4 9 5 12 2 2 -3
-1 -11 -7 -17z m47 -4 c3 -16 1 -17 -13 -5 -19 16 -21 34 -3 29 6 -3 14 -13
16 -24z m269 -9 c-10 -23 -28 -26 -28 -4 0 6 4 8 9 5 5 -3 11 1 15 9 3 8 8 15
10 15 3 0 1 -11 -6 -25z m267 16 c3 -5 1 -12 -4 -15 -5 -3 -11 1 -15 9 -6 16
9 21 19 6z m-134 -44 c-10 -9 -11 -8 -5 6 3 10 9 15 12 12 3 -3 0 -11 -7 -18z
m2064 5 c-3 -3 -11 0 -18 7 -9 10 -8 11 6 5 10 -3 15 -9 12 -12z m-1962 -42
c-7 -25 -19 -34 -28 -19 -5 8 18 36 32 39 0 0 -1 -9 -4 -20z m31 -15 c-4 -8
-8 -15 -10 -15 -2 0 -4 7 -4 15 0 8 4 15 10 15 5 0 7 -7 4 -15z m86 -70 c0 -8
-4 -15 -10 -15 -5 0 -10 7 -10 15 0 8 5 15 10 15 6 0 10 -7 10 -15z m744 0
c-13 -10 -15 -14 -5 -15 8 0 12 -3 8 -6 -3 -3 -11 -3 -17 1 -13 8 5 35 23 35
6 0 2 -7 -9 -15z m-643 -117 l-9 -33 -1 41 c-1 22 2 44 7 48 12 12 14 -19 3
-56z m58 20 c-1 -35 -2 -38 -8 -18 -7 23 -4 60 5 60 2 0 4 -19 3 -42z m-29
-88 c0 -13 -1 -13 -10 0 -5 8 -10 22 -10 30 0 13 1 13 10 0 5 -8 10 -22 10
-30z m-240 -2 c0 -16 -3 -19 -11 -11 -6 6 -8 16 -5 22 11 17 16 13 16 -11z"/>
<path d="M2988 5063 c6 -2 18 -2 25 0 6 3 1 5 -13 5 -14 0 -19 -2 -12 -5z"/>
<path d="M3047 5063 c-18 -17 15 -56 39 -46 13 5 12 7 -2 18 -9 6 -14 17 -10
23 8 13 -16 17 -27 5z"/>
<path d="M2700 4943 c0 -29 2 -29 19 5 10 18 9 22 -4 22 -10 0 -15 -9 -15 -27z"/>
<path d="M3179 4979 c-10 -6 -10 -9 -1 -9 22 0 27 -2 40 -12 6 -6 12 -6 12 -2
0 16 -36 33 -51 23z"/>
<path d="M2538 4923 c7 -3 16 -2 19 1 4 3 -2 6 -13 5 -11 0 -14 -3 -6 -6z"/>
<path d="M2490 4910 c-8 -5 -12 -11 -9 -14 3 -3 14 1 25 9 21 16 8 20 -16 5z"/>
<path d="M2240 4860 c0 -5 12 -10 28 -9 24 0 25 1 7 9 -27 12 -35 12 -35 0z"/>
<path d="M2049 4764 c-8 -10 -21 -13 -36 -9 -13 3 -23 1 -23 -5 0 -6 -4 -8
-10 -5 -5 3 -10 1 -10 -5 0 -7 8 -9 20 -5 11 4 20 2 20 -4 0 -6 5 -11 12 -11
6 0 8 3 5 7 -4 3 8 17 25 30 18 12 27 23 21 23 -6 0 -16 -7 -24 -16z"/>
<path d="M2437 4728 c-2 -8 6 -19 20 -25 25 -12 25 -12 7 10 -10 12 -19 23
-20 25 -1 2 -4 -3 -7 -10z"/>
<path d="M1925 4700 c-17 -18 -17 -20 -2 -14 11 4 17 1 17 -9 0 -9 -9 -19 -21
-22 -20 -7 -22 -26 -2 -32 13 -5 37 52 28 66 -3 6 -1 11 4 11 6 0 11 5 11 10
0 16 -15 12 -35 -10z"/>
<path d="M1860 4695 c0 -8 5 -15 10 -15 6 0 10 7 10 15 0 8 -4 15 -10 15 -5 0
-10 -7 -10 -15z"/>
<path d="M2246 4685 c-3 -9 -23 -24 -44 -33 -21 -9 -39 -21 -39 -25 -1 -5 -21
-22 -43 -38 -23 -17 -39 -33 -36 -36 3 -3 25 10 48 29 53 43 81 58 107 58 11
0 22 9 26 21 8 25 -9 48 -19 24z"/>
<path d="M2420 4690 c-12 -7 -12 -11 -2 -20 6 -5 10 -7 7 -4 -3 4 0 13 6 21
13 15 10 16 -11 3z"/>
<path d="M1880 4670 c-8 -5 -12 -12 -9 -15 4 -3 12 1 19 10 14 17 11 19 -10 5z"/>
<path d="M2476 4635 c-9 -57 6 -80 21 -32 7 25 7 40 -2 57 -12 22 -13 20 -19
-25z"/>
<path d="M1967 4620 c-15 -24 -25 -45 -22 -48 3 -3 5 0 5 6 0 6 6 9 14 6 18
-7 38 29 34 58 -2 17 -8 14 -31 -22z"/>
<path d="M2095 4639 c-11 -16 -1 -19 13 -3 7 8 8 14 3 14 -5 0 -13 -5 -16 -11z"/>
<path d="M2232 4596 c-15 -33 -11 -44 7 -22 7 8 11 23 9 32 -2 14 -6 11 -16
-10z"/>
<path d="M2432 4590 c-1 -14 -9 -38 -17 -54 -19 -35 -14 -43 9 -17 12 13 16
31 13 58 -2 21 -4 27 -5 13z"/>
<path d="M2540 4595 c0 -9 -9 -34 -19 -55 -21 -43 -11 -55 13 -17 21 32 30 74
17 81 -6 4 -11 0 -11 -9z"/>
<path d="M2600 4590 c0 -5 5 -10 11 -10 5 0 7 5 4 10 -3 6 -8 10 -11 10 -2 0
-4 -4 -4 -10z"/>
<path d="M2031 4576 c-8 -9 -11 -19 -7 -23 9 -9 29 13 24 27 -2 8 -8 7 -17 -4z"/>
<path d="M1733 4563 c-18 -7 -16 -23 2 -23 8 0 15 7 15 15 0 8 -1 15 -2 14 -2
0 -9 -3 -15 -6z"/>
<path d="M2620 4560 c0 -5 5 -10 11 -10 5 0 7 5 4 10 -3 6 -8 10 -11 10 -2 0
-4 -4 -4 -10z"/>
<path d="M1775 4521 c-3 -5 -1 -12 5 -16 5 -3 10 1 10 9 0 18 -6 21 -15 7z"/>
<path d="M1856 4504 c-9 -23 -2 -28 13 -10 7 8 8 17 3 20 -6 3 -13 -1 -16 -10z"/>
<path d="M2565 4499 c-22 -14 -25 -19 -12 -19 23 0 57 18 57 30 0 14 -11 11
-45 -11z"/>
<path d="M1677 4496 c-4 -10 -5 -21 -2 -24 9 -9 17 6 13 25 -3 17 -4 17 -11
-1z"/>
<path d="M1925 4501 c-6 -11 9 -23 19 -14 9 9 7 23 -3 23 -6 0 -12 -4 -16 -9z"/>
<path d="M2019 4494 c-7 -9 -22 -19 -33 -23 -12 -5 -15 -10 -8 -14 12 -8 71
38 61 47 -3 4 -12 -1 -20 -10z"/>
<path d="M2681 4502 c5 -31 -3 -54 -16 -48 -11 4 -15 -1 -15 -19 0 -25 -18
-44 -29 -28 -3 5 -19 9 -34 8 l-28 0 22 -17 c11 -10 32 -18 46 -18 18 0 24 -4
20 -15 -4 -8 -2 -17 2 -20 5 -2 12 11 15 30 4 20 16 56 26 80 16 36 16 44 4
49 -7 3 -13 2 -13 -2z"/>
<path d="M2098 4478 c-19 -19 -13 -24 11 -9 7 5 12 13 10 18 -2 5 -12 1 -21
-9z"/>
<path d="M2351 4473 c-1 -7 -18 -22 -38 -33 l-38 -21 39 5 c47 6 56 15 46 41
-5 11 -9 14 -9 8z"/>
<path d="M2585 4470 c3 -5 8 -10 11 -10 2 0 4 5 4 10 0 6 -5 10 -11 10 -5 0
-7 -4 -4 -10z"/>
<path d="M1846 4435 c-22 -19 -33 -35 -25 -35 22 0 56 27 62 50 3 11 4 20 4
20 -1 -1 -20 -16 -41 -35z"/>
<path d="M2130 4433 c-52 -60 -54 -63 -28 -51 28 13 61 54 56 69 -2 6 -15 -2
-28 -18z"/>
<path d="M1747 4417 c-11 -29 -9 -43 4 -30 6 6 9 19 7 29 -3 18 -4 18 -11 1z"/>
<path d="M1916 4411 c-4 -7 -5 -15 -2 -18 9 -9 19 4 14 18 -4 11 -6 11 -12 0z"/>
<path d="M2510 4396 c0 -14 -6 -31 -13 -38 -15 -16 -47 -65 -47 -73 0 -3 7 -5
15 -5 21 0 65 74 65 110 0 16 -4 30 -10 30 -5 0 -10 -11 -10 -24z"/>
<path d="M2388 4394 c-5 -4 -8 -15 -8 -25 0 -10 -7 -25 -16 -33 -14 -15 -14
-16 5 -16 13 0 23 8 27 24 7 29 2 61 -8 50z"/>
<path d="M1896 4364 c-8 -21 -4 -25 14 -14 11 7 12 12 4 20 -8 8 -13 7 -18 -6z"/>
<path d="M1685 4360 c-3 -5 -1 -10 4 -10 6 0 11 5 11 10 0 6 -2 10 -4 10 -3 0
-8 -4 -11 -10z"/>
<path d="M1798 4359 c-22 -12 -23 -29 -3 -29 8 0 19 9 25 20 12 22 4 25 -22 9z"/>
<path d="M2200 4340 c-7 -17 -23 -39 -37 -50 -13 -10 -20 -21 -15 -24 5 -3 18
5 29 17 27 28 56 87 44 87 -5 0 -14 -14 -21 -30z"/>
<path d="M1589 4343 c-13 -16 -12 -17 4 -4 16 13 21 21 13 21 -2 0 -10 -8 -17
-17z"/>
<path d="M1615 4330 c-16 -16 -24 -30 -18 -30 14 0 63 39 63 51 0 17 -16 9
-45 -21z"/>
<path d="M1956 4334 c-4 -9 -4 -19 -1 -22 2 -3 7 3 11 12 4 9 4 19 1 22 -2 3
-7 -3 -11 -12z"/>
<path d="M1843 4284 c-12 -19 -18 -34 -14 -34 11 0 43 49 39 59 -2 5 -13 -7
-25 -25z"/>
<path d="M2291 4308 c-1 -9 -10 -23 -22 -31 -12 -9 -16 -18 -10 -21 13 -8 45
39 38 56 -4 8 -6 7 -6 -4z"/>
<path d="M2005 4290 c-10 -11 -13 -20 -8 -20 13 0 38 29 31 35 -3 3 -13 -4
-23 -15z"/>
<path d="M2081 4283 c-10 -26 -10 -27 4 -9 8 11 15 23 15 28 0 15 -7 8 -19
-19z"/>
<path d="M2661 4294 c0 -11 3 -14 6 -6 3 7 2 16 -1 19 -3 4 -6 -2 -5 -13z"/>
<path d="M1758 4285 c-4 -11 -16 -35 -28 -52 -12 -18 -17 -33 -12 -33 16 0 54
67 50 87 -3 16 -5 16 -10 -2z"/>
<path d="M1490 4209 c0 -5 5 -7 10 -4 6 3 10 8 10 11 0 2 -4 4 -10 4 -5 0 -10
-5 -10 -11z"/>
<path d="M2050 4176 c-7 -14 -17 -26 -22 -26 -4 0 -8 -4 -8 -10 0 -5 4 -10 10
-10 13 0 43 47 38 61 -2 6 -10 -1 -18 -15z"/>
<path d="M2558 4165 c-3 -14 -1 -28 3 -31 5 -3 9 9 9 25 0 38 -6 40 -12 6z"/>
<path d="M2081 3994 c0 -11 3 -14 6 -6 3 7 2 16 -1 19 -3 4 -6 -2 -5 -13z"/>
<path d="M1811 3989 c-1 -9 -10 -26 -21 -39 l-20 -23 -10 24 c-10 22 -10 22
-6 -7 3 -17 0 -36 -6 -42 -11 -11 -1 -55 12 -47 4 3 13 -2 20 -10 7 -8 16 -13
20 -10 4 3 10 -2 14 -10 3 -8 10 -15 15 -15 10 0 7 45 -4 82 -4 10 -2 24 3 31
6 8 5 24 -4 47 -7 19 -13 28 -13 19z m-46 -109 c3 -5 1 -10 -4 -10 -6 0 -11 5
-11 10 0 6 2 10 4 10 3 0 8 -4 11 -10z"/>
<path d="M1697 3984 c-4 -4 -5 -16 -2 -28 2 -12 6 -47 9 -79 6 -60 11 -77 25
-77 10 0 1 108 -12 140 -6 14 -9 31 -8 38 2 13 -2 15 -12 6z"/>
<path d="M1660 3921 c0 -7 -6 -11 -15 -7 -8 3 -15 0 -15 -6 0 -9 -3 -9 -12 0
-18 18 -30 14 -24 -8 14 -49 17 -64 9 -55 -4 6 -16 11 -25 13 -15 2 -17 -3
-12 -30 l5 -33 -16 25 c-16 24 -16 24 -12 3 6 -29 -9 -30 -18 -2 -4 11 -9 18
-11 16 -9 -8 24 -77 37 -77 6 0 8 7 5 16 -4 9 -2 13 5 8 6 -4 15 -1 19 6 5 8
13 9 21 4 25 -15 69 -13 69 4 0 13 3 13 12 4 20 -20 30 -13 14 10 -9 12 -16
38 -16 58 0 19 -5 42 -10 50 -7 12 -10 12 -10 1z"/>
<path d="M1850 3874 c0 -39 20 -67 43 -58 24 9 22 19 -13 56 l-29 33 -1 -31z"/>
<path d="M1468 3799 c-13 -32 48 -89 75 -72 10 6 6 15 -16 38 -28 28 -30 28
-24 7 4 -19 3 -21 -8 -12 -8 6 -15 21 -17 33 -3 18 -4 19 -10 6z"/>
<path d="M2970 4706 c0 -2 7 -9 15 -16 9 -7 15 -8 15 -2 0 5 -7 12 -15 16 -8
3 -15 4 -15 2z"/>
<path d="M4705 4286 c2 -21 7 -41 10 -44 9 -10 5 53 -5 68 -7 11 -9 4 -5 -24z"/>
<path d="M4730 4304 c0 -5 7 -19 15 -30 8 -10 15 -14 15 -8 0 5 -7 19 -15 30
-8 10 -15 14 -15 8z"/>
<path d="M4752 4160 c0 -14 2 -19 5 -12 2 6 2 18 0 25 -3 6 -5 1 -5 -13z"/>
<path d="M3071 3674 c0 -11 3 -14 6 -6 3 7 2 16 -1 19 -3 4 -6 -2 -5 -13z"/>
<path d="M2850 3544 c-19 -7 -29 -13 -22 -13 18 -1 15 -31 -4 -31 -8 0 -12 -4
-9 -10 3 -5 -1 -10 -10 -10 -21 0 -67 -35 -58 -44 3 -3 2 -6 -4 -6 -6 0 -4
-14 5 -35 17 -37 41 -45 62 -20 7 9 19 14 26 11 6 -2 20 1 30 9 15 11 16 15 5
29 -9 11 -10 16 -2 16 6 0 11 -5 11 -12 0 -16 39 22 57 55 12 24 12 31 1 45
-28 36 -34 37 -88 16z"/>
<path d="M2591 3534 c0 -11 3 -14 6 -6 3 7 2 16 -1 19 -3 4 -6 -2 -5 -13z"/>
<path d="M2620 3504 c0 -1 4 -14 10 -28 10 -28 40 -36 40 -11 0 8 -7 15 -15
15 -8 0 -12 6 -9 13 3 8 -2 14 -11 14 -8 0 -15 -2 -15 -3z"/>
<path d="M2740 3491 c0 -17 15 -19 28 -5 11 12 9 14 -8 14 -11 0 -20 -4 -20
-9z"/>
<path d="M2614 3428 c-8 -13 20 -19 46 -10 24 9 23 9 -8 14 -18 3 -35 1 -38
-4z"/>
<path d="M2654 3384 c-2 -23 20 -39 37 -28 6 3 5 11 -2 20 -8 10 -8 14 0 14 6
0 11 4 11 9 0 5 -10 8 -22 8 -17 0 -23 -6 -24 -23z"/>
<path d="M2110 3439 c0 -6 24 -19 36 -19 2 0 4 6 4 14 0 9 -9 14 -20 13 -11
-1 -20 -4 -20 -8z"/>
<path d="M2634 2903 c3 -21 19 -20 22 2 1 8 -4 15 -11 15 -7 0 -12 -8 -11 -17z"/>
<path d="M1436 2311 c-4 -7 -5 -15 -2 -18 9 -9 19 4 14 18 -4 11 -6 11 -12 0z"/>
<path d="M1311 2231 c-7 -5 -10 -14 -7 -20 4 -6 0 -11 -8 -11 -9 0 -16 -4 -16
-10 0 -13 15 -13 38 -1 9 5 25 12 35 15 10 3 17 12 15 19 -6 15 -38 20 -57 8z"/>
<path d="M1293 2105 c4 -8 2 -17 -3 -20 -6 -4 -10 2 -10 12 0 15 -2 16 -10 3
-14 -22 -12 -27 10 -33 11 -3 20 -1 20 5 0 5 5 6 12 2 8 -5 9 -2 5 10 -4 10
-7 22 -7 27 0 5 -5 9 -11 9 -6 0 -9 -7 -6 -15z"/>
<path d="M1541 2212 c-1 -7 -5 -11 -10 -7 -17 10 -20 -10 -4 -30 12 -15 14
-16 10 -3 -3 9 -1 18 5 20 6 2 8 11 5 19 -4 10 -6 10 -6 1z"/>
<path d="M1580 2085 c-11 -13 -10 -14 4 -9 9 3 16 10 16 15 0 13 -6 11 -20 -6z"/>
<path d="M1576 2018 c-5 -19 -8 -21 -16 -8 -6 9 -10 10 -10 3 0 -6 4 -14 9
-18 12 -7 43 24 36 36 -9 14 -12 11 -19 -13z"/>
<path d="M1620 1974 c0 -8 5 -12 10 -9 6 3 10 10 10 16 0 5 -4 9 -10 9 -5 0
-10 -7 -10 -16z"/>
<path d="M1590 1911 c0 -25 6 -27 13 -6 4 8 2 17 -3 20 -6 4 -10 -3 -10 -14z"/>
<path d="M2472 1670 c0 -19 2 -27 5 -17 2 9 2 25 0 35 -3 9 -5 1 -5 -18z"/>
<path d="M1941 1634 c0 -11 3 -14 6 -6 3 7 2 16 -1 19 -3 4 -6 -2 -5 -13z"/>
<path d="M2040 2166 c0 -2 -7 -20 -15 -41 l-16 -37 23 18 c22 17 35 64 17 64
-5 0 -9 -2 -9 -4z"/>
<path d="M1850 2052 c6 -13 14 -21 18 -18 3 4 -2 14 -12 24 -18 16 -18 16 -6
-6z"/>
</g>
</svg>
